<svg xmlns="http://www.w3.org/2000/svg" height="1024" preserveAspectRatio="none" style="display: block;" version="1.1" viewBox="0 0 2048 2048" width="1024">
<path d="M 0 0 L 2048 0 L 2048 2048 L 0 2048 L 0 0 z" fill="rgb(255,255,255)" transform="translate(0,0)"></path>
<path d="M 1478.98 1527.84 C 1502.35 1526.06 1533.69 1527.08 1557.73 1526.99 C 1574.75 1526.92 1605.1 1526.3 1621.02 1527.84 C 1671.89 1528.05 1722.77 1527.81 1773.63 1527.14 C 1773.49 1551.41 1773.66 1575.68 1774.13 1599.95 C 1775.47 1611.93 1775.53 1629.41 1775.84 1642.06 C 1776.45 1666.26 1777.23 1691.42 1777.14 1715.6 C 1777.89 1719.57 1778.22 1720.79 1777.75 1724.8 C 1778.18 1754.19 1779.78 1789.74 1778.84 1818.46 C 1778.93 1821.4 1779.43 1825.16 1778.21 1827.75 C 1776.75 1888.47 1771.85 1949.72 1770.48 2009.86 L 1544.54 2009.46 L 1489.05 2009.61 C 1483.79 2009.63 1465.5 2009.93 1461.43 2009.1 C 1386.31 2010.02 1311.18 2010.06 1236.07 2009.2 C 1231.1 2010.31 1209.04 2009.98 1202.36 2009.98 L 1131.55 2009.95 L 1024.74 2009.9 C 1007.87 2009.9 981.801 2010.79 966.011 2009.4 C 955.793 2008.49 935.443 2009 924.4 2009.01 C 902.673 2009.03 879.564 2008.6 857.957 2009.27 C 847.736 2010.38 828.907 2009.96 818.242 2009.95 L 739.632 2009.32 C 677.674 2008.85 613.639 2009.93 551.369 2009.9 L 414.485 2009.94 C 400.778 2009.99 356.691 2010.95 346.128 2009.14 C 326.403 2008.43 302.165 2009.08 282.121 2009.13 C 281.863 1994.85 278.883 1972.62 277.68 1957.94 C 274.463 1918.73 269.7 1879.24 266.428 1840.01 C 266.012 1834.93 266.669 1828.63 266.863 1823.47 C 268.932 1768.57 273.371 1713.49 275.223 1658.62 C 275.094 1656.83 274.952 1656.79 275.643 1655.29 L 277.226 1621.69 C 277.063 1619.44 276.876 1619.21 277.642 1617.26 C 278.701 1590.37 277.382 1553.51 279.592 1527.89 L 703.812 1527.86 L 711.981 1527.86 C 732.216 1526.3 760.783 1527.09 781.543 1527.13 C 819.677 1526.94 857.812 1527.09 895.943 1527.58 L 1158.33 1527.94 C 1196.19 1528.04 1234.06 1527.9 1271.92 1527.52 C 1284.18 1527.4 1319.97 1526.34 1330.87 1527.9 C 1379.57 1528.67 1430.14 1527.94 1478.98 1527.84 z" fill="rgb(33,31,32)" transform="translate(0,0)"></path>
<path d="M 279.592 1527.89 L 703.812 1527.86 L 711.981 1527.86 C 761.508 1529.83 812.482 1526.7 862.127 1528.09 C 865.143 1528.17 865.683 1528.46 867.859 1530.28 C 877.38 1538.99 900.415 1561.12 910.003 1568.04 L 910.01 1569.96 L 858.548 1702.95 C 854.806 1712.41 843.283 1744.55 839.202 1751.38 L 836.667 1752.21 C 836.755 1753.24 836.843 1754.28 836.93 1755.31 C 830.236 1767.23 822.481 1786.04 816.857 1798.88 L 785.273 1871.75 C 781.283 1881.03 771.093 1906.23 765.986 1913.47 L 766.152 1915.2 C 773.13 1921.29 781.82 1931.06 788.496 1937.96 L 827.191 1977.61 C 831.635 1982.12 855.269 2004.48 857.224 2007.41 L 857.957 2009.27 C 847.736 2010.38 828.907 2009.96 818.242 2009.95 L 739.632 2009.32 C 677.674 2008.85 613.639 2009.93 551.369 2009.9 L 414.485 2009.94 C 400.778 2009.99 356.691 2010.95 346.128 2009.14 C 326.403 2008.43 302.165 2009.08 282.121 2009.13 C 281.863 1994.85 278.883 1972.62 277.68 1957.94 C 274.463 1918.73 269.7 1879.24 266.428 1840.01 C 266.012 1834.93 266.669 1828.63 266.863 1823.47 C 268.932 1768.57 273.371 1713.49 275.223 1658.62 C 275.094 1656.83 274.952 1656.79 275.643 1655.29 L 277.226 1621.69 C 277.063 1619.44 276.876 1619.21 277.642 1617.26 C 278.701 1590.37 277.382 1553.51 279.592 1527.89 z" fill="rgb(33,31,32)" transform="translate(0,0)"></path>
<path d="M 363.332 1871.66 C 391.259 1877.59 422.745 1882.16 451.099 1887.07 C 511.104 1897.53 571.226 1907.31 631.453 1916.41 L 633.7 1916.49 L 633.64 1913.79 C 638.463 1915.31 665.844 1914.14 672.623 1914.04 L 725.772 1913.79 C 739.214 1913.61 752.573 1912.83 765.986 1913.47 L 766.152 1915.2 C 773.13 1921.29 781.82 1931.06 788.496 1937.96 L 827.191 1977.61 C 831.635 1982.12 855.269 2004.48 857.224 2007.41 L 857.957 2009.27 C 847.736 2010.38 828.907 2009.96 818.242 2009.95 L 739.632 2009.32 C 677.674 2008.85 613.639 2009.93 551.369 2009.9 L 414.485 2009.94 C 400.778 2009.99 356.691 2010.95 346.128 2009.14 L 346.715 2007.73 C 347.161 1997.69 348.837 1986.42 350.255 1976.34 C 355.142 1941.6 358.123 1906.31 363.332 1871.66 z" fill="rgb(255,255,255)" transform="translate(0,0)"></path>
<path d="M 633.64 1913.79 C 638.463 1915.31 665.844 1914.14 672.623 1914.04 L 725.772 1913.79 C 739.214 1913.61 752.573 1912.83 765.986 1913.47 L 766.152 1915.2 C 773.13 1921.29 781.82 1931.06 788.496 1937.96 L 827.191 1977.61 C 831.635 1982.12 855.269 2004.48 857.224 2007.41 C 816.325 2008.37 775.82 2007.46 734.996 2007.33 L 612.65 2007.89 C 617.68 1988.39 621.487 1969.67 625.642 1950.02 C 627.467 1941.39 630.833 1924.37 633.7 1916.49 L 633.64 1913.79 z" fill="rgb(255,255,255)" transform="translate(0,0)"></path>
<path d="M 633.64 1913.79 C 638.463 1915.31 665.844 1914.14 672.623 1914.04 L 725.772 1913.79 C 739.214 1913.61 752.573 1912.83 765.986 1913.47 L 766.152 1915.2 L 670.394 1916.24 C 662.743 1916.29 639.334 1917.19 633.7 1916.49 L 633.64 1913.79 z" fill="rgb(134,133,133)" transform="translate(0,0)"></path>
<path d="M 631.453 1916.41 L 633.7 1916.49 C 630.833 1924.37 627.467 1941.39 625.642 1950.02 C 621.487 1969.67 617.68 1988.39 612.65 2007.89 L 734.996 2007.33 C 775.82 2007.46 816.325 2008.37 857.224 2007.41 L 857.957 2009.27 C 847.736 2010.38 828.907 2009.96 818.242 2009.95 L 739.632 2009.32 C 677.674 2008.85 613.639 2009.93 551.369 2009.9 L 414.485 2009.94 C 400.778 2009.99 356.691 2010.95 346.128 2009.14 L 346.715 2007.73 C 372.152 2009.06 408.518 2007.97 435.163 2007.98 L 610.254 2007.9 C 618.298 1984.87 624.171 1942.33 631.453 1916.41 z" fill="rgb(134,133,133)" transform="translate(0,0)"></path>
<path d="M 279.592 1527.89 L 703.812 1527.86 L 702.801 1532.81 L 702.178 1529.92 C 696.428 1528.74 665.656 1529.89 657.302 1529.87 L 502.82 1529.76 C 490.142 1529.76 436.859 1530.56 429.013 1528.32 C 427.867 1528.12 427.906 1528.17 426.771 1528.54 C 421.824 1548.99 415.782 1576.62 409.849 1596.43 L 409.462 1597.03 L 409.275 1599.09 C 394.298 1687.96 375.347 1782.49 362.627 1871.05 C 333.717 1860.81 295.97 1847.66 268.007 1836.15 L 266.428 1840.01 C 266.012 1834.93 266.669 1828.63 266.863 1823.47 C 268.932 1768.57 273.371 1713.49 275.223 1658.62 C 275.094 1656.83 274.952 1656.79 275.643 1655.29 L 277.226 1621.69 C 277.063 1619.44 276.876 1619.21 277.642 1617.26 C 278.701 1590.37 277.382 1553.51 279.592 1527.89 z" fill="rgb(255,255,255)" transform="translate(0,0)"></path>
<path d="M 279.592 1527.89 L 703.812 1527.86 L 702.801 1532.81 L 702.178 1529.92 C 696.428 1528.74 665.656 1529.89 657.302 1529.87 L 502.82 1529.76 C 490.142 1529.76 436.859 1530.56 429.013 1528.32 C 427.867 1528.12 427.906 1528.17 426.771 1528.54 C 421.824 1548.99 415.782 1576.62 409.849 1596.43 L 409.462 1597.03 L 409.275 1599.09 C 373.665 1605.11 336.854 1608.08 301.016 1612.93 C 294.083 1613.86 286.469 1614.83 279.522 1615.43 C 279.158 1636.76 277.172 1657.41 276.767 1678.36 C 276.04 1679.81 276.2 1679.87 276.33 1681.66 L 271.203 1780.01 C 270.38 1796.12 269.944 1821.04 268.007 1836.15 L 266.428 1840.01 C 266.012 1834.93 266.669 1828.63 266.863 1823.47 C 268.932 1768.57 273.371 1713.49 275.223 1658.62 C 275.094 1656.83 274.952 1656.79 275.643 1655.29 L 277.226 1621.69 C 277.063 1619.44 276.876 1619.21 277.642 1617.26 C 278.701 1590.37 277.382 1553.51 279.592 1527.89 z" fill="rgb(255,255,255)" transform="translate(0,0)"></path>
<path d="M 279.592 1527.89 L 703.812 1527.86 L 702.801 1532.81 L 702.178 1529.92 C 696.428 1528.74 665.656 1529.89 657.302 1529.87 L 502.82 1529.76 C 490.142 1529.76 436.859 1530.56 429.013 1528.32 C 427.867 1528.12 427.906 1528.17 426.771 1528.54 C 409.341 1529.97 386.844 1529.58 369.136 1529.58 L 281.162 1529.51 C 281.101 1557.25 281.234 1585.53 279.593 1613.21 C 319.313 1609.06 370.121 1603.35 409.462 1597.03 L 409.275 1599.09 C 373.665 1605.11 336.854 1608.08 301.016 1612.93 C 294.083 1613.86 286.469 1614.83 279.522 1615.43 C 279.158 1636.76 277.172 1657.41 276.767 1678.36 C 276.04 1679.81 276.2 1679.87 276.33 1681.66 L 271.203 1780.01 C 270.38 1796.12 269.944 1821.04 268.007 1836.15 L 266.428 1840.01 C 266.012 1834.93 266.669 1828.63 266.863 1823.47 C 268.932 1768.57 273.371 1713.49 275.223 1658.62 C 275.094 1656.83 274.952 1656.79 275.643 1655.29 L 277.226 1621.69 C 277.063 1619.44 276.876 1619.21 277.642 1617.26 C 278.701 1590.37 277.382 1553.51 279.592 1527.89 z" fill="rgb(134,133,133)" transform="translate(0,0)"></path>
<path d="M 277.226 1621.69 C 277.063 1619.44 276.876 1619.21 277.642 1617.26 C 277.854 1619.48 278.064 1619.8 277.226 1621.69 z" fill="rgb(157,156,158)" transform="translate(0,0)"></path>
<path d="M 681.368 1647.57 C 718.074 1670.75 755.631 1698.68 792.287 1722.5 C 806.727 1731.88 822.027 1743.51 836.667 1752.21 C 836.755 1753.24 836.843 1754.28 836.93 1755.31 C 830.236 1767.23 822.481 1786.04 816.857 1798.88 L 785.273 1871.75 C 781.283 1881.03 771.093 1906.23 765.986 1913.47 C 752.573 1912.83 739.214 1913.61 725.772 1913.79 L 672.623 1914.04 C 665.844 1914.14 638.463 1915.31 633.64 1913.79 C 635.507 1900.18 638.955 1884.02 641.415 1870.29 C 647.337 1835.77 653.692 1801.33 660.478 1766.98 C 667.888 1727.41 673.574 1687.17 681.368 1647.57 z" fill="rgb(255,255,255)" transform="translate(0,0)"></path>
<path d="M 426.771 1528.54 C 427.906 1528.17 427.867 1528.12 429.013 1528.32 C 436.859 1530.56 490.142 1529.76 502.82 1529.76 L 657.302 1529.87 C 665.656 1529.89 696.428 1528.74 702.178 1529.92 L 702.801 1532.81 C 695.294 1563.5 686.029 1614.14 681.516 1645.22 C 657.275 1639.72 625.317 1635.14 600.285 1630.74 L 411.774 1597.77 L 409.849 1596.43 C 415.782 1576.62 421.824 1548.99 426.771 1528.54 z" fill="rgb(255,255,255)" transform="translate(0,0)"></path>
<path d="M 426.771 1528.54 C 427.906 1528.17 427.867 1528.12 429.013 1528.32 C 428.318 1530.19 427.862 1532.09 427.32 1534.01 L 426.154 1538.52 C 424.523 1544.63 423.214 1550.83 421.727 1556.98 L 420.76 1560.98 L 419.26 1567.02 L 416.783 1577.48 C 415.315 1583.88 412.813 1591.5 411.774 1597.77 L 409.849 1596.43 C 415.782 1576.62 421.824 1548.99 426.771 1528.54 z" fill="rgb(83,83,85)" transform="translate(0,0)"></path>
<path d="M 1478.98 1527.84 C 1502.35 1526.06 1533.69 1527.08 1557.73 1526.99 C 1574.75 1526.92 1605.1 1526.3 1621.02 1527.84 C 1671.89 1528.05 1722.77 1527.81 1773.63 1527.14 C 1773.49 1551.41 1773.66 1575.68 1774.13 1599.95 C 1774.1 1603.91 1774.68 1605.78 1772.94 1608.89 L 1771.2 1609.26 C 1756.7 1613.4 1742.35 1616.36 1727.73 1619.81 C 1723.22 1620.88 1711.11 1623.43 1707.37 1624.87 C 1692.98 1679.55 1681.17 1735.16 1667.36 1790.01 C 1665.21 1798.56 1662.91 1807.34 1661.21 1815.97 L 1658.9 1816.7 L 1657.27 1817.51 L 1483.47 1708.61 C 1490.21 1689.65 1495.02 1664.52 1500.95 1644.78 C 1512.49 1606.34 1522.88 1567.19 1534.09 1528.71 C 1529.54 1526.99 1488.56 1528.34 1478.98 1527.84 z" fill="rgb(255,255,255)" transform="translate(0,0)"></path>
<path d="M 1621.02 1527.84 C 1671.89 1528.05 1722.77 1527.81 1773.63 1527.14 C 1773.49 1551.41 1773.66 1575.68 1774.13 1599.95 C 1774.1 1603.91 1774.68 1605.78 1772.94 1608.89 L 1771.2 1609.26 C 1756.7 1613.4 1742.35 1616.36 1727.73 1619.81 C 1723.22 1620.88 1711.11 1623.43 1707.37 1624.87 L 1705.44 1624.86 C 1697.45 1615.66 1673.05 1593.05 1663.41 1583.84 C 1645.69 1566.9 1623.57 1543.75 1605.19 1528.61 C 1609.35 1527.95 1616.61 1527.94 1621.02 1527.84 z" fill="rgb(33,31,32)" transform="translate(0,0)"></path>
<path d="M 1705.44 1624.86 L 1707.37 1624.87 C 1692.98 1679.55 1681.17 1735.16 1667.36 1790.01 C 1665.21 1798.56 1662.91 1807.34 1661.21 1815.97 L 1658.9 1816.7 C 1675.45 1754.09 1688.32 1686.74 1705.44 1624.86 z" fill="rgb(83,83,85)" transform="translate(0,0)"></path>
<path d="M 1478.98 1527.84 C 1502.35 1526.06 1533.69 1527.08 1557.73 1526.99 C 1574.75 1526.92 1605.1 1526.3 1621.02 1527.84 C 1616.61 1527.94 1609.35 1527.95 1605.19 1528.61 C 1597.98 1529.57 1540.58 1529.79 1534.09 1528.71 C 1529.54 1526.99 1488.56 1528.34 1478.98 1527.84 z" fill="rgb(134,133,133)" transform="translate(0,0)"></path>
<path d="M 1774.13 1599.95 C 1775.47 1611.93 1775.53 1629.41 1775.84 1642.06 C 1776.45 1666.26 1777.23 1691.42 1777.14 1715.6 C 1777.89 1719.57 1778.22 1720.79 1777.75 1724.8 C 1778.18 1754.19 1779.78 1789.74 1778.84 1818.46 C 1778.93 1821.4 1779.43 1825.16 1778.21 1827.75 C 1776.75 1888.47 1771.85 1949.72 1770.48 2009.86 L 1544.54 2009.46 L 1489.05 2009.61 C 1483.79 2009.63 1465.5 2009.93 1461.43 2009.1 L 1461.97 2008.9 C 1497.31 2009.94 1535.31 2008.33 1570.96 2009.03 C 1580.37 2009.21 1623.28 2009.54 1630.69 2008.36 C 1626.19 2002.22 1619.72 1994.18 1614.31 1988.92 C 1615.32 1978.49 1627.46 1936.62 1630.95 1924.76 C 1641 1890.61 1649.76 1854.32 1659.95 1820.47 L 1660.72 1819.06 L 1660.98 1818.11 L 1661.21 1815.97 C 1662.91 1807.34 1665.21 1798.56 1667.36 1790.01 C 1681.17 1735.16 1692.98 1679.55 1707.37 1624.87 C 1711.11 1623.43 1723.22 1620.88 1727.73 1619.81 C 1742.35 1616.36 1756.7 1613.4 1771.2 1609.26 L 1772.94 1608.89 C 1774.68 1605.78 1774.1 1603.91 1774.13 1599.95 z" fill="rgb(255,255,255)" transform="translate(0,0)"></path>
<path d="M 1771.2 1609.26 C 1773.82 1612.73 1773.65 1641.87 1773.82 1648.52 C 1775.22 1701.54 1776.23 1754.56 1776.85 1807.6 C 1741.73 1809.33 1704.97 1814.74 1669.7 1817.33 C 1668.99 1817.77 1668.89 1817.69 1668.03 1817.83 L 1660.98 1818.11 L 1661.21 1815.97 C 1662.91 1807.34 1665.21 1798.56 1667.36 1790.01 C 1681.17 1735.16 1692.98 1679.55 1707.37 1624.87 C 1711.11 1623.43 1723.22 1620.88 1727.73 1619.81 C 1742.35 1616.36 1756.7 1613.4 1771.2 1609.26 z" fill="rgb(255,255,255)" transform="translate(0,0)"></path>
<path d="M 1774.13 1599.95 C 1775.47 1611.93 1775.53 1629.41 1775.84 1642.06 C 1776.45 1666.26 1777.23 1691.42 1777.14 1715.6 C 1777.89 1719.57 1778.22 1720.79 1777.75 1724.8 C 1778.18 1754.19 1779.78 1789.74 1778.84 1818.46 C 1778.93 1821.4 1779.43 1825.16 1778.21 1827.75 C 1776.75 1888.47 1771.85 1949.72 1770.48 2009.86 L 1544.54 2009.46 L 1489.05 2009.61 C 1483.79 2009.63 1465.5 2009.93 1461.43 2009.1 L 1461.97 2008.9 C 1497.31 2009.94 1535.31 2008.33 1570.96 2009.03 C 1580.37 2009.21 1623.28 2009.54 1630.69 2008.36 C 1635.56 2007.39 1666.26 2007.92 1672.66 2007.93 L 1768.57 2007.97 C 1769.55 1942.89 1776.56 1873.87 1776.76 1809.01 C 1763.74 1811.3 1738.97 1813.02 1724.93 1814.3 C 1708.83 1815.76 1683.6 1818.93 1668.3 1819.03 C 1665.66 1818.98 1663.36 1818.95 1660.72 1819.06 L 1660.98 1818.11 L 1668.03 1817.83 C 1668.89 1817.69 1668.99 1817.77 1669.7 1817.33 C 1704.97 1814.74 1741.73 1809.33 1776.85 1807.6 C 1776.23 1754.56 1775.22 1701.54 1773.82 1648.52 C 1773.65 1641.87 1773.82 1612.73 1771.2 1609.26 L 1772.94 1608.89 C 1774.68 1605.78 1774.1 1603.91 1774.13 1599.95 z" fill="rgb(117,117,119)" transform="translate(0,0)"></path>
<path d="M 1778.21 1827.75 C 1777.69 1823.74 1778.07 1822.5 1778.84 1818.46 C 1778.93 1821.4 1779.43 1825.16 1778.21 1827.75 z" fill="rgb(173,173,173)" transform="translate(0,0)"></path>
<path d="M 1777.14 1715.6 C 1777.89 1719.57 1778.22 1720.79 1777.75 1724.8 C 1776.61 1722.22 1777.06 1718.48 1777.14 1715.6 z" fill="rgb(173,173,173)" transform="translate(0,0)"></path>
<path d="M 1660.72 1819.06 C 1663.36 1818.95 1665.66 1818.98 1668.3 1819.03 C 1664.45 1820.09 1664 1820.1 1659.95 1820.47 L 1660.72 1819.06 z" fill="rgb(211,211,211)" transform="translate(0,0)"></path>
<path d="M 993.417 1850.85 C 1019.13 1854.7 1044.4 1859.47 1069.93 1864.35 C 1134.5 1876.71 1199.37 1886.5 1263.91 1899.09 C 1255.51 1934.56 1243.85 1972.33 1236.04 2007.77 L 1236.07 2009.2 C 1231.1 2010.31 1209.04 2009.98 1202.36 2009.98 L 1131.55 2009.95 L 1024.74 2009.9 C 1007.87 2009.9 981.801 2010.79 966.011 2009.4 L 965.828 2007.63 C 974.476 1955.28 983.673 1903.02 993.417 1850.85 z" fill="rgb(255,255,255)" transform="translate(0,0)"></path>
<path d="M 965.828 2007.63 C 1013.11 2008.64 1062.41 2007.84 1109.92 2007.95 C 1151.05 2008.05 1195.18 2008.8 1236.04 2007.77 L 1236.07 2009.2 C 1231.1 2010.31 1209.04 2009.98 1202.36 2009.98 L 1131.55 2009.95 L 1024.74 2009.9 C 1007.87 2009.9 981.801 2010.79 966.011 2009.4 L 965.828 2007.63 z" fill="rgb(134,133,133)" transform="translate(0,0)"></path>
<path d="M 910.01 1569.96 L 928.261 1570.4 C 929.607 1570.41 929.642 1570.33 930.817 1570.85 C 957.263 1572.77 983.738 1574.28 1010.23 1575.37 C 1012.03 1575.26 1012.17 1575.11 1013.72 1575.77 L 1029.32 1576.35 C 1030.62 1576.37 1030.67 1576.3 1031.83 1576.77 C 1035.85 1577.01 1037.55 1577.34 1041.39 1576.42 C 1039.43 1591.22 1035.61 1608.58 1032.89 1623.5 L 1016.76 1712.72 L 1001.3 1802.89 C 998.917 1817.22 996.519 1835.16 993.584 1849.12 C 952.509 1820.95 909.432 1795.86 867.055 1769.72 C 857.926 1764.09 849.265 1758.82 839.846 1753.66 L 839.202 1751.38 C 843.283 1744.55 854.806 1712.41 858.548 1702.95 L 910.01 1569.96 z" fill="rgb(255,255,255)" transform="translate(0,0)"></path>
<path d="M 1010.23 1575.37 C 1012.03 1575.26 1012.17 1575.11 1013.72 1575.77 C 1011.89 1575.92 1011.83 1576.11 1010.23 1575.37 z" fill="rgb(173,173,173)" transform="translate(0,0)"></path>
<path d="M 711.981 1527.86 C 732.216 1526.3 760.783 1527.09 781.543 1527.13 C 819.677 1526.94 857.812 1527.09 895.943 1527.58 L 1158.33 1527.94 C 1196.19 1528.04 1234.06 1527.9 1271.92 1527.52 C 1284.18 1527.4 1319.97 1526.34 1330.87 1527.9 L 1330.23 1529.15 C 1323.8 1558.21 1315.16 1593.08 1312.25 1622.44 C 1290.44 1617.68 1264.57 1613.76 1242.32 1609.88 L 1104.93 1586.15 C 1096.29 1584.62 1047.47 1577 1043.09 1575.38 C 1041.46 1576.19 1041.85 1575.65 1041.39 1576.42 C 1037.55 1577.34 1035.85 1577.01 1031.83 1576.77 C 1030.67 1576.3 1030.62 1576.37 1029.32 1576.35 L 1013.72 1575.77 C 1012.17 1575.11 1012.03 1575.26 1010.23 1575.37 C 983.738 1574.28 957.263 1572.77 930.817 1570.85 C 929.642 1570.33 929.607 1570.41 928.261 1570.4 L 910.01 1569.96 L 910.003 1568.04 C 900.415 1561.12 877.38 1538.99 867.859 1530.28 C 865.683 1528.46 865.143 1528.17 862.127 1528.09 C 812.482 1526.7 761.508 1529.83 711.981 1527.86 z" fill="rgb(255,255,255)" transform="translate(0,0)"></path>
<path d="M 711.981 1527.86 C 732.216 1526.3 760.783 1527.09 781.543 1527.13 C 819.677 1526.94 857.812 1527.09 895.943 1527.58 L 1158.33 1527.94 C 1196.19 1528.04 1234.06 1527.9 1271.92 1527.52 C 1284.18 1527.4 1319.97 1526.34 1330.87 1527.9 L 1330.23 1529.15 C 1295.13 1528.5 1257.6 1529.89 1222.21 1529.97 L 1051.8 1529.21 C 1049.63 1539.59 1045.87 1567.96 1043.09 1575.38 C 1041.46 1576.19 1041.85 1575.65 1041.39 1576.42 C 1037.55 1577.34 1035.85 1577.01 1031.83 1576.77 C 1030.67 1576.3 1030.62 1576.37 1029.32 1576.35 L 1013.72 1575.77 C 1012.17 1575.11 1012.03 1575.26 1010.23 1575.37 C 983.738 1574.28 957.263 1572.77 930.817 1570.85 C 929.642 1570.33 929.607 1570.41 928.261 1570.4 L 910.01 1569.96 L 910.003 1568.04 C 900.415 1561.12 877.38 1538.99 867.859 1530.28 C 865.683 1528.46 865.143 1528.17 862.127 1528.09 C 812.482 1526.7 761.508 1529.83 711.981 1527.86 z" fill="rgb(255,255,255)" transform="translate(0,0)"></path>
<path d="M 711.981 1527.86 C 732.216 1526.3 760.783 1527.09 781.543 1527.13 C 819.677 1526.94 857.812 1527.09 895.943 1527.58 L 1158.33 1527.94 C 1196.19 1528.04 1234.06 1527.9 1271.92 1527.52 C 1284.18 1527.4 1319.97 1526.34 1330.87 1527.9 L 1330.23 1529.15 C 1295.13 1528.5 1257.6 1529.89 1222.21 1529.97 L 1051.8 1529.21 C 1049.63 1539.59 1045.87 1567.96 1043.09 1575.38 C 1041.46 1576.19 1041.85 1575.65 1041.39 1576.42 C 1037.55 1577.34 1035.85 1577.01 1031.83 1576.77 C 1030.67 1576.3 1030.62 1576.37 1029.32 1576.35 L 1013.72 1575.77 C 1012.17 1575.11 1012.03 1575.26 1010.23 1575.37 C 983.738 1574.28 957.263 1572.77 930.817 1570.85 C 929.642 1570.33 929.607 1570.41 928.261 1570.4 L 910.01 1569.96 L 910.003 1568.04 C 922.933 1567.64 941.081 1569.27 954.363 1570.18 C 956.085 1570.1 956.203 1569.97 957.707 1570.59 C 979.832 1570.96 1002.05 1573.22 1024.19 1574.19 C 1025.43 1574.72 1025.31 1574.63 1026.76 1574.63 L 1041.44 1574.91 C 1044.47 1561.14 1046.92 1543.35 1049.26 1529.18 L 915.034 1529.63 C 907.745 1529.66 872.972 1528.93 867.859 1530.28 C 865.683 1528.46 865.143 1528.17 862.127 1528.09 C 812.482 1526.7 761.508 1529.83 711.981 1527.86 z" fill="rgb(134,133,133)" transform="translate(0,0)"></path>
<path d="M 1430.8 1898.23 C 1469.34 1915.75 1508.48 1937.75 1546.65 1956.81 C 1561.34 1964.14 1602.01 1982.23 1613.07 1989.94 L 1614.31 1988.92 C 1619.72 1994.18 1626.19 2002.22 1630.69 2008.36 C 1623.28 2009.54 1580.37 2009.21 1570.96 2009.03 C 1535.31 2008.33 1497.31 2009.94 1461.97 2008.9 L 1461.95 2007.6 C 1451.19 1972.8 1442.72 1931.94 1430.8 1898.23 z" fill="rgb(255,255,255)" transform="translate(0,0)"></path>
<path d="M 1614.31 1988.92 C 1619.72 1994.18 1626.19 2002.22 1630.69 2008.36 C 1623.28 2009.54 1580.37 2009.21 1570.96 2009.03 C 1535.31 2008.33 1497.31 2009.94 1461.97 2008.9 L 1461.95 2007.6 C 1516.77 2006.27 1573.43 2009.23 1627.49 2007.42 C 1622.63 2001.64 1617.83 1995.81 1613.07 1989.94 L 1614.31 1988.92 z" fill="rgb(134,133,133)" transform="translate(0,0)"></path>
<path d="M 836.667 1752.21 L 839.202 1751.38 L 839.846 1753.66 C 838.874 1754.24 837.92 1754.76 836.93 1755.31 C 836.843 1754.28 836.755 1753.24 836.667 1752.21 z" fill="rgb(48,46,46)" transform="translate(0,0)"></path>
<path d="M 1312.59 1624.25 C 1316.65 1625.51 1348.01 1642.13 1354.25 1645.23 L 1482.32 1709.11 C 1474.59 1729.76 1464.71 1767.87 1458.62 1789.93 L 1429.81 1891.74 C 1428.26 1893.07 1279.24 1897.82 1266.54 1898.16 C 1275.64 1840.59 1285.15 1783.09 1295.06 1725.65 C 1300.74 1692.25 1305.78 1657.34 1312.59 1624.25 z" fill="rgb(255,255,255)" transform="translate(0,0)"></path>
<path d="M 1023.44 158.466 C 1023.88 158.45 1024.33 158.424 1024.78 158.418 C 1221.05 155.687 1581.25 202.867 1724.55 342.427 C 1752.06 369.209 1776.68 405.48 1777.05 445.264 C 1777.44 486.171 1753.23 522.59 1725.28 550.503 C 1611.75 663.915 1359.2 713.349 1203.45 727.941 C 1144.96 732.843 1086.29 735.074 1027.6 734.627 C 961.449 733.755 878.278 731.787 810.81 723.775 C 650.83 704.777 448.303 664.11 324.853 552.773 C 296.41 527.122 272.017 486.36 271.552 447.691 C 271.089 409.239 292.036 373.152 318.695 346.824 C 431.257 235.66 656.027 188.25 808.115 170.875 C 879.654 163.347 951.509 159.206 1023.44 158.466 z" fill="rgb(33,31,32)" transform="translate(0,0)"></path>
<path d="M 986.447 193.504 C 1042.92 192.392 1099.41 193.773 1155.76 197.643 C 1306.9 209.202 1529.33 249.452 1645.19 355.082 C 1668.58 376.406 1690.73 410.366 1691.25 443.076 C 1691.81 477.986 1675.71 507.679 1651.56 532.213 C 1567.55 616.423 1445.17 647.408 1333.02 672.151 C 1239.75 692.729 1155.34 699.238 1060.77 701.712 C 867.477 705.15 551.526 675.657 404.105 539.356 C 378.241 515.442 357.719 486.625 356.486 450.262 C 355.336 416.39 373.131 385.484 395.887 361.581 C 500.275 251.929 738.241 210.323 883.807 198.177 C 917.962 195.536 952.193 193.978 986.447 193.504 z" fill="rgb(255,255,255)" transform="translate(0,0)"></path>
<path d="M 986.516 219.437 C 1155.7 213.256 1442.81 243.847 1575.53 359.953 C 1599.22 380.676 1618.83 411.395 1620.13 443.7 C 1621.36 474.134 1605.68 503.696 1584.64 524.834 C 1497.9 611.963 1320.68 651.205 1203.33 665.331 C 1156.63 670.502 1109.72 673.525 1062.75 674.391 C 1033.6 675.622 1002.92 674.84 973.752 673.911 C 933.678 672.94 893.66 670.341 853.797 666.122 C 732.073 652.571 568.371 617.633 472.637 534.15 C 448.899 513.185 428.045 482.777 426.709 450.232 C 424.051 385.5 490.888 338.821 541.83 312.665 C 675.252 244.161 838.868 225.255 986.516 219.437 z" fill="rgb(33,31,32)" transform="translate(0,0)"></path>
<path d="M 999.311 251.491 C 1143.54 248.169 1386.98 272.06 1502 374.181 C 1520.79 390.865 1537.92 419.399 1538.19 445.373 C 1538.48 472.644 1523.97 495.97 1505.21 514.889 C 1439.46 581.168 1308.99 614.754 1220.01 628.448 C 1162.87 637.153 1105.19 641.854 1047.39 642.516 C 914.527 644.521 764.753 629.463 641.836 577.264 C 609.21 563.409 571.856 543.868 546.142 519.55 C 526.018 500.518 509.014 477.433 508.155 448.864 C 507.413 424.204 522.177 396.907 539.471 380.308 C 645.477 278.559 862.771 254.617 999.311 251.491 z" fill="rgb(255,255,255)" transform="translate(0,0)"></path>
<path d="M 1006.79 276.458 C 1007.21 276.427 1007.63 276.384 1008.05 276.365 C 1122.93 271.349 1345.61 298.071 1433.11 379.415 C 1450.74 395.806 1466.93 418.031 1467.74 442.96 C 1468.53 466.917 1457.02 488.095 1440.83 505.007 C 1418.57 528.246 1389.69 544.28 1360.63 557.444 C 1260.99 602.575 1149.32 615.016 1040.98 616.989 C 920.343 617.192 797.359 606.7 685.542 557.193 C 636.857 535.638 559.725 489.33 582.086 423.936 C 600.764 372.906 663.637 341.921 711.55 324.269 C 805.868 289.52 907.154 278.753 1006.79 276.458 z" fill="rgb(33,31,32)" transform="translate(0,0)"></path>
<path d="M 983.38 307.423 C 994.15 306.491 1014.85 306.656 1026.97 306.807 C 1136 309.237 1264.1 321.632 1355.27 386.799 C 1391.5 412.702 1402.98 458.171 1369.34 491.117 C 1295.01 563.911 1161.48 580.63 1063.29 585.879 C 1026.61 587.166 989.893 586.543 953.279 584.012 C 871.431 577.826 753.136 556.436 687.068 502.463 C 671.801 489.55 656.426 469.285 655.701 448.548 C 654.255 407.147 694.972 379.572 727.583 363.479 C 806.16 324.702 896.865 312.299 983.38 307.423 z" fill="rgb(255,255,255)" transform="translate(0,0)"></path>
<path d="M 1027.93 330.484 C 1111.24 328.509 1232.52 346.919 1300.2 400.457 C 1328.75 423.036 1329.83 464.866 1301.73 488.539 C 1230.77 548.321 1106.18 563.348 1017.68 562.806 C 942.411 564.115 800.168 542.959 743.633 488.928 C 731.39 477.227 720.757 463.619 720.823 445.784 C 720.882 430.034 729.811 415.538 740.539 404.615 C 800.628 343.432 946.78 331.575 1027.93 330.484 z" fill="rgb(33,31,32)" transform="translate(0,0)"></path>
<path d="M 998.659 359.436 C 1067.13 355.792 1175.01 366.501 1231.23 408.887 C 1281.09 446.472 1234.75 486.808 1194.32 502.689 C 1145.06 522.038 1100.34 529.39 1047.75 532.38 C 975.998 536.712 870.74 523.796 810.511 480.514 C 790.797 466.348 783.938 437.396 802.79 419.37 C 850.646 373.613 935.478 362.968 998.659 359.436 z" fill="rgb(255,255,255)" transform="translate(0,0)"></path>
<path d="M 1023.43 379.468 C 1073.67 380.05 1135.13 387.656 1176.46 418.157 C 1193.51 430.744 1196.35 453.878 1180.11 468.487 C 1138.95 505.5 1070.9 510.483 1018.17 511.467 C 968.492 510.277 907.559 503.663 866.64 472.746 C 850.602 460.629 845.505 437.528 861.432 423.255 C 901.247 387.576 972.244 380.673 1023.43 379.468 z" fill="rgb(33,31,32)" transform="translate(0,0)"></path>
<path d="M 1006.53 403.405 C 1034.64 399.558 1101.34 407.786 1122.25 426.463 C 1171.15 470.14 1060 486.055 1040.25 487.799 C 1003.57 489.436 957.704 486.005 924.772 466.141 C 919.715 463.221 911.388 454.216 911.316 447.932 C 910.922 413.529 983.844 405.503 1006.53 403.405 z" fill="rgb(255,255,255)" transform="translate(0,0)"></path>
<path d="M 1011.59 421.407 C 1028.27 419.432 1064.43 423.679 1077.85 433.525 C 1107.98 455.635 1050.15 467.958 1037.25 469.015 C 1016.39 470.446 992.121 469.469 972.861 460.34 C 965.93 457.054 953.905 446.115 961.734 438.277 C 973.447 426.55 995.837 422.868 1011.59 421.407 z" fill="rgb(33,31,32)" transform="translate(0,0)"></path>
<path d="M 1407.55 928.836 L 1410.61 930.424 C 1422.08 925.323 1433.31 918.477 1444.65 912.992 C 1529.55 871.908 1634.86 864.678 1724.05 895.927 C 1739.94 901.494 1761.07 913.642 1771 927.582 C 1783.24 944.767 1773.83 958.112 1767.54 974.439 C 1751.41 975.369 1713.31 975.14 1698.06 973.04 C 1698.99 980.317 1698.55 989.171 1697.52 996.449 L 1695.17 996.312 C 1689.08 1015.17 1656.5 1036.91 1639.63 1045.14 L 1638.98 1047.22 L 1637.01 1046.94 C 1613.37 1058.82 1577.34 1078.55 1554.81 1092.68 L 1553.78 1093.27 C 1561.11 1099.95 1575.82 1107.02 1584.75 1111.87 C 1601.1 1120.77 1617.4 1128.73 1633.24 1138.64 C 1654.05 1124.83 1675.35 1111.79 1697.11 1099.54 C 1698.88 1098.55 1713.42 1090.45 1714.88 1089.98 C 1732.94 1102.47 1753.72 1105.96 1775.19 1108.29 C 1775.05 1130.76 1775.11 1153.24 1775.38 1175.71 C 1731.92 1173.9 1673.43 1163.47 1637.91 1137.53 C 1572.05 1169.75 1489.12 1172.05 1421.56 1200.19 C 1402.04 1208.32 1384.56 1221 1366.4 1231.6 C 1345.44 1243.84 1324.08 1255.63 1302.94 1267.58 C 1297.59 1270.61 1280.4 1282.16 1276.17 1283.13 L 1274.96 1284.14 C 1272.67 1282.86 1271.42 1282.2 1269.01 1281.16 C 1269.31 1280.62 1269.62 1280.08 1269.93 1279.53 C 1250.61 1271.05 1211.44 1250.29 1193.47 1244.83 C 1186.74 1248.64 1179.64 1252.7 1173.07 1256.74 C 1182.54 1262.41 1197.04 1268.87 1207.5 1273.88 C 1222.87 1281.23 1239.28 1289.51 1254.84 1296.09 C 1230.37 1309.04 1205.1 1321.38 1178.73 1329.97 C 1062.86 1367.73 924.404 1361.81 817.934 1299.97 C 834.599 1291.77 851.159 1283.37 867.611 1274.76 C 876.512 1270.15 888.98 1264.08 897.074 1258.52 C 890.796 1257.17 890.991 1256.74 886.135 1252.38 C 883.477 1252.58 878.982 1248.78 876.673 1247.02 L 877.619 1245.44 C 866.315 1238.02 854.507 1227.87 843.721 1219.43 C 828.17 1207.25 812.704 1195.6 797.957 1182.47 C 830.132 1168.26 861.858 1153.04 893.97 1138.69 C 902.893 1134.7 911.757 1130.57 920.959 1127.26 C 919.954 1126.54 918.96 1125.8 917.977 1125.05 L 917.269 1124.78 C 910.272 1122.14 901.486 1117.34 894.511 1113.95 C 878.288 1106.06 854.05 1096.62 839.448 1086.99 L 836.978 1086.28 C 827.214 1089.13 809.752 1096.85 799.587 1100.82 C 775.269 1110.31 750.933 1120.28 727.165 1131.08 C 706.192 1118.13 680.059 1105.4 657.799 1092.21 L 655.72 1092.74 C 649.932 1089.04 641.258 1084.5 636.366 1079.81 C 626.992 1082.6 563.976 1114.89 559.45 1120.12 C 557.082 1121.2 556.162 1121.68 553.963 1123.05 C 548.364 1120.14 538.461 1112.82 533.013 1109.02 C 517.666 1098.33 502.798 1087.23 487.138 1076.94 L 488.789 1074.62 C 504.88 1063.61 520.886 1052.47 536.806 1041.21 C 544.731 1035.63 558.052 1025.67 566.151 1021.48 C 537.549 1008.51 496.969 993.556 467.789 982.983 C 488.805 969.074 512.076 955.569 533.719 942.59 C 543.021 937.012 563.808 924.071 572.969 920.303 C 577.504 916.138 591.437 909.788 597.451 907.778 C 668.085 873.521 774.685 871.107 849.86 889.398 C 915.474 905.362 1001.59 941.3 1057.98 977.856 C 1071.94 970.057 1087.67 964.775 1102.2 958.824 C 1183.09 925.699 1270.6 909.889 1357.78 920.379 C 1362.89 920.994 1369.37 921.783 1374.52 922.054 C 1379.45 922.101 1404.45 925.927 1407.55 928.836 z" fill="rgb(33,31,32)" transform="translate(0,0)"></path>
<path d="M 1059.54 978.682 C 1087.21 994.054 1113.4 1008.66 1141.62 1023.05 C 1130.13 1027.34 1108.59 1040.55 1097.21 1047.17 C 1086.26 1053.55 1065.18 1065.07 1055.49 1072.35 C 1083.24 1086.63 1110.4 1102.83 1138.21 1117.16 C 1147.44 1121.92 1157 1127.93 1166.31 1132.34 L 1166.88 1128.1 L 1166.98 1127.02 C 1187.83 1113.5 1213.46 1100.14 1235.52 1087.37 C 1236.43 1086.77 1237.33 1086.16 1238.23 1085.56 C 1243.9 1087.97 1253.67 1092.47 1257.94 1096.57 C 1266.65 1098.13 1341.45 1136.9 1352.77 1142.89 C 1359.09 1141.12 1365.76 1139.12 1372.02 1137.16 C 1417.48 1122.88 1464.57 1117.23 1510.77 1106.5 C 1524.56 1103.3 1539.36 1097.04 1552.6 1091.77 L 1553.78 1093.27 C 1561.11 1099.95 1575.82 1107.02 1584.75 1111.87 C 1601.1 1120.77 1617.4 1128.73 1633.24 1138.64 C 1654.05 1124.83 1675.35 1111.79 1697.11 1099.54 C 1698.88 1098.55 1713.42 1090.45 1714.88 1089.98 C 1732.94 1102.47 1753.72 1105.96 1775.19 1108.29 C 1775.05 1130.76 1775.11 1153.24 1775.38 1175.71 C 1731.92 1173.9 1673.43 1163.47 1637.91 1137.53 C 1572.05 1169.75 1489.12 1172.05 1421.56 1200.19 C 1402.04 1208.32 1384.56 1221 1366.4 1231.6 C 1345.44 1243.84 1324.08 1255.63 1302.94 1267.58 C 1297.59 1270.61 1280.4 1282.16 1276.17 1283.13 L 1274.96 1284.14 C 1272.67 1282.86 1271.42 1282.2 1269.01 1281.16 C 1269.31 1280.62 1269.62 1280.08 1269.93 1279.53 C 1250.61 1271.05 1211.44 1250.29 1193.47 1244.83 C 1186.74 1248.64 1179.64 1252.7 1173.07 1256.74 C 1182.54 1262.41 1197.04 1268.87 1207.5 1273.88 C 1222.87 1281.23 1239.28 1289.51 1254.84 1296.09 C 1230.37 1309.04 1205.1 1321.38 1178.73 1329.97 C 1062.86 1367.73 924.404 1361.81 817.934 1299.97 C 834.599 1291.77 851.159 1283.37 867.611 1274.76 C 876.512 1270.15 888.98 1264.08 897.074 1258.52 C 890.796 1257.17 890.991 1256.74 886.135 1252.38 C 883.477 1252.58 878.982 1248.78 876.673 1247.02 L 877.619 1245.44 C 866.315 1238.02 854.507 1227.87 843.721 1219.43 C 828.17 1207.25 812.704 1195.6 797.957 1182.47 C 830.132 1168.26 861.858 1153.04 893.97 1138.69 C 902.893 1134.7 911.757 1130.57 920.959 1127.26 L 922.178 1126.08 C 936.027 1121.33 950.857 1114.35 964.617 1108.67 C 995.141 1095.83 1025.81 1083.35 1056.62 1071.22 C 1030.74 1056.67 1004.51 1040.81 978.949 1026.58 C 992.974 1018.66 1007 1010.01 1020.91 1001.77 C 1033.35 994.394 1047.66 986.688 1059.54 978.682 z" fill="rgb(255,255,255)" transform="translate(0,0)"></path>
<path d="M 1633.24 1138.64 C 1654.05 1124.83 1675.35 1111.79 1697.11 1099.54 C 1698.88 1098.55 1713.42 1090.45 1714.88 1089.98 C 1732.94 1102.47 1753.72 1105.96 1775.19 1108.29 C 1775.05 1130.76 1775.11 1153.24 1775.38 1175.71 C 1731.92 1173.9 1673.43 1163.47 1637.91 1137.53 C 1572.05 1169.75 1489.12 1172.05 1421.56 1200.19 C 1402.04 1208.32 1384.56 1221 1366.4 1231.6 C 1345.44 1243.84 1324.08 1255.63 1302.94 1267.58 C 1297.59 1270.61 1280.4 1282.16 1276.17 1283.13 L 1274.96 1284.14 C 1272.67 1282.86 1271.42 1282.2 1269.01 1281.16 C 1269.31 1280.62 1269.62 1280.08 1269.93 1279.53 C 1250.61 1271.05 1211.44 1250.29 1193.47 1244.83 L 1191.94 1244.03 C 1198.26 1240.79 1211.93 1231.06 1218.21 1226.73 C 1234.86 1215.3 1251.36 1203.66 1267.72 1191.81 C 1288.29 1205.83 1325.18 1221.89 1349.73 1237.03 C 1358.79 1231.91 1370.9 1222.96 1380.07 1217.04 C 1395.46 1207.09 1407.95 1200.73 1424.3 1193 C 1406.9 1183.6 1368.9 1155.87 1352.05 1143.29 C 1331.9 1152.14 1290.94 1178.06 1269.01 1190.42 C 1238.32 1172.62 1215.29 1157.76 1182.87 1140.86 C 1192.43 1134.93 1202.11 1129.21 1211.92 1123.7 C 1219.11 1119.71 1255.63 1101.19 1257.94 1096.57 C 1266.65 1098.13 1341.45 1136.9 1352.77 1142.89 C 1359.09 1141.12 1365.76 1139.12 1372.02 1137.16 C 1417.48 1122.88 1464.57 1117.23 1510.77 1106.5 C 1524.56 1103.3 1539.36 1097.04 1552.6 1091.77 L 1553.78 1093.27 C 1561.11 1099.95 1575.82 1107.02 1584.75 1111.87 C 1601.1 1120.77 1617.4 1128.73 1633.24 1138.64 z" fill="rgb(33,31,32)" transform="translate(0,0)"></path>
<path d="M 1269.93 1279.53 C 1273.12 1280.99 1273.38 1281.1 1276.17 1283.13 L 1274.96 1284.14 C 1272.67 1282.86 1271.42 1282.2 1269.01 1281.16 C 1269.31 1280.62 1269.62 1280.08 1269.93 1279.53 z" fill="rgb(134,133,133)" transform="translate(0,0)"></path>
<path d="M 1171.01 1256.18 L 1173.07 1256.74 C 1182.54 1262.41 1197.04 1268.87 1207.5 1273.88 C 1222.87 1281.23 1239.28 1289.51 1254.84 1296.09 C 1230.37 1309.04 1205.1 1321.38 1178.73 1329.97 C 1062.86 1367.73 924.404 1361.81 817.934 1299.97 C 834.599 1291.77 851.159 1283.37 867.611 1274.76 C 876.512 1270.15 888.98 1264.08 897.074 1258.52 C 899.302 1258.5 923.79 1269.38 928.518 1271.02 C 1006.69 1298.21 1097.71 1293.94 1171.01 1256.18 z" fill="rgb(33,31,32)" transform="translate(0,0)"></path>
<path d="M 1166.88 1128.1 C 1179.72 1127.99 1180.99 1129.82 1180.58 1140.25 C 1175.87 1137.61 1170.91 1135.01 1166.31 1132.34 L 1166.88 1128.1 z" fill="rgb(33,31,32)" transform="translate(0,0)"></path>
<path d="M 1238.23 1085.56 C 1243.9 1087.97 1253.67 1092.47 1257.94 1096.57 L 1256.03 1096.13 C 1249.03 1094.58 1243.69 1089.4 1237.23 1087.82 L 1235.52 1087.37 C 1236.43 1086.77 1237.33 1086.16 1238.23 1085.56 z" fill="rgb(173,173,173)" transform="translate(0,0)"></path>
<path d="M 1171.01 1256.18 C 1174.05 1253.75 1188.11 1245.75 1191.94 1244.03 L 1193.47 1244.83 C 1186.74 1248.64 1179.64 1252.7 1173.07 1256.74 L 1171.01 1256.18 z" fill="rgb(157,156,158)" transform="translate(0,0)"></path>
<path d="M 877.619 1245.44 C 880.341 1247.11 885.298 1249.56 886.135 1252.38 C 883.477 1252.58 878.982 1248.78 876.673 1247.02 L 877.619 1245.44 z" fill="rgb(157,156,158)" transform="translate(0,0)"></path>
<path d="M 886.135 1252.38 L 888.015 1252.85 C 891.822 1253.69 894.472 1255.73 897.074 1258.52 C 890.796 1257.17 890.991 1256.74 886.135 1252.38 z" fill="rgb(211,211,211)" transform="translate(0,0)"></path>
<path d="M 572.969 920.303 C 577.504 916.138 591.437 909.788 597.451 907.778 L 597.716 909.249 C 620.3 922.413 642.177 936.265 664.878 949.444 C 657.924 952.693 653.243 953.5 650.452 960.126 L 650.716 961.409 C 658.441 960.252 666.694 954.818 674.34 952.784 C 760.742 929.8 849.194 951.258 925.499 994.341 C 941.428 1003.34 960.185 1013.05 974.826 1023.89 L 976.256 1024.96 C 948.004 1035.59 919.366 1050.23 891.459 1062.09 C 883.422 1065.5 870.931 1072.04 863.348 1074.79 L 863.507 1076.61 C 860.125 1077.65 842.57 1085.09 839.448 1086.99 L 836.978 1086.28 C 827.214 1089.13 809.752 1096.85 799.587 1100.82 C 775.269 1110.31 750.933 1120.28 727.165 1131.08 C 706.192 1118.13 680.059 1105.4 657.799 1092.21 L 655.72 1092.74 C 649.932 1089.04 641.258 1084.5 636.366 1079.81 C 626.992 1082.6 563.976 1114.89 559.45 1120.12 C 557.082 1121.2 556.162 1121.68 553.963 1123.05 C 548.364 1120.14 538.461 1112.82 533.013 1109.02 C 517.666 1098.33 502.798 1087.23 487.138 1076.94 L 488.789 1074.62 C 504.88 1063.61 520.886 1052.47 536.806 1041.21 C 544.731 1035.63 558.052 1025.67 566.151 1021.48 C 537.549 1008.51 496.969 993.556 467.789 982.983 C 488.805 969.074 512.076 955.569 533.719 942.59 C 543.021 937.012 563.808 924.071 572.969 920.303 z" fill="rgb(255,255,255)" transform="translate(0,0)"></path>
<path d="M 572.969 920.303 L 574.253 920.734 C 591.339 931.223 631.168 955.588 648.092 963.244 C 615.774 983.577 595.725 1002.14 566.072 1023.08 C 587.82 1042.49 615.413 1060.17 636.826 1078.93 L 636.366 1079.81 C 626.992 1082.6 563.976 1114.89 559.45 1120.12 C 557.082 1121.2 556.162 1121.68 553.963 1123.05 C 548.364 1120.14 538.461 1112.82 533.013 1109.02 C 517.666 1098.33 502.798 1087.23 487.138 1076.94 L 488.789 1074.62 C 504.88 1063.61 520.886 1052.47 536.806 1041.21 C 544.731 1035.63 558.052 1025.67 566.151 1021.48 C 537.549 1008.51 496.969 993.556 467.789 982.983 C 488.805 969.074 512.076 955.569 533.719 942.59 C 543.021 937.012 563.808 924.071 572.969 920.303 z" fill="rgb(33,31,32)" transform="translate(0,0)"></path>
<path d="M 572.969 920.303 C 577.504 916.138 591.437 909.788 597.451 907.778 L 597.716 909.249 C 591.357 912.769 581.081 918.079 574.253 920.734 L 572.969 920.303 z" fill="rgb(211,211,211)" transform="translate(0,0)"></path>
<path d="M 836.978 1086.28 C 843.06 1082.62 856.399 1077.53 863.348 1074.79 L 863.507 1076.61 C 860.125 1077.65 842.57 1085.09 839.448 1086.99 L 836.978 1086.28 z" fill="rgb(157,156,158)" transform="translate(0,0)"></path>
<path d="M 636.826 1078.93 C 641.423 1081.28 653.58 1089.1 657.799 1092.21 L 655.72 1092.74 C 649.932 1089.04 641.258 1084.5 636.366 1079.81 L 636.826 1078.93 z" fill="rgb(157,156,158)" transform="translate(0,0)"></path>
<path d="M 1137.22 1026.37 C 1151.56 1020.31 1165.17 1012.81 1180 1007.07 C 1228.65 988.25 1277.47 978.926 1329.75 983.924 C 1343.83 985.04 1357.8 986.559 1370.82 992.359 C 1396.18 1003.66 1422.9 1024.36 1448.16 1034.71 C 1460.71 1023.56 1496.72 1000.61 1511.12 991.575 C 1518.9 994.627 1526.56 998.933 1534.29 1002.11 L 1534.97 1000.72 L 1600.33 1028.16 C 1608.68 1031.69 1628.95 1039.91 1635.86 1043.89 L 1637.01 1046.94 C 1613.37 1058.82 1577.34 1078.55 1554.81 1092.68 L 1553.78 1093.27 L 1552.6 1091.77 C 1539.36 1097.04 1524.56 1103.3 1510.77 1106.5 C 1464.57 1117.23 1417.48 1122.88 1372.02 1137.16 C 1365.76 1139.12 1359.09 1141.12 1352.77 1142.89 C 1341.45 1136.9 1266.65 1098.13 1257.94 1096.57 C 1253.67 1092.47 1243.9 1087.97 1238.23 1085.56 C 1233.4 1083.14 1227.6 1079.79 1222.94 1076.95 C 1194.76 1059.8 1164.87 1044.24 1137.22 1026.37 z" fill="rgb(255,255,255)" transform="translate(0,0)"></path>
<path d="M 1534.97 1000.72 L 1600.33 1028.16 C 1608.68 1031.69 1628.95 1039.91 1635.86 1043.89 L 1637.01 1046.94 C 1613.37 1058.82 1577.34 1078.55 1554.81 1092.68 L 1553.78 1093.27 L 1552.6 1091.77 L 1553.04 1090.62 C 1549.82 1087.88 1531.67 1078.8 1527.32 1076.49 C 1507.86 1066.18 1487.58 1056.55 1468.41 1045.77 C 1473.13 1043.21 1477.66 1040.4 1482.04 1037.28 C 1499.15 1025.1 1516.85 1013.81 1534.29 1002.11 L 1534.97 1000.72 z" fill="rgb(33,31,32)" transform="translate(0,0)"></path>
<path d="M 1448.16 1034.71 C 1454.45 1032.5 1451.9 1031.3 1458.88 1033.39 C 1467.46 1035.96 1466.45 1033.27 1465.62 1042.62 C 1463.14 1045.24 1451.49 1036.69 1448.16 1034.71 z" fill="rgb(33,31,32)" transform="translate(0,0)"></path>
<path d="M 1511.13 989.769 C 1501.78 984.377 1488.97 975.723 1503.95 965.766 C 1547.78 936.651 1660.94 927.997 1696.1 973.932 L 1698.06 973.04 C 1698.99 980.317 1698.55 989.171 1697.52 996.449 L 1695.17 996.312 C 1689.08 1015.17 1656.5 1036.91 1639.63 1045.14 L 1638.98 1047.22 L 1637.01 1046.94 L 1635.86 1043.89 C 1628.95 1039.91 1608.68 1031.69 1600.33 1028.16 L 1534.97 1000.72 L 1534.29 1002.11 C 1526.56 998.933 1518.9 994.627 1511.12 991.575 L 1511.13 989.769 z" fill="rgb(255,255,255)" transform="translate(0,0)"></path>
<path d="M 1696.1 973.932 L 1698.06 973.04 C 1698.99 980.317 1698.55 989.171 1697.52 996.449 L 1695.17 996.312 C 1695.66 987.694 1696.72 983.209 1696.1 973.932 z" fill="rgb(157,156,158)" transform="translate(0,0)"></path>
<path d="M 1511.13 989.769 C 1516.55 991.606 1530.21 997.565 1534.97 1000.72 L 1534.29 1002.11 C 1526.56 998.933 1518.9 994.627 1511.12 991.575 L 1511.13 989.769 z" fill="rgb(117,117,119)" transform="translate(0,0)"></path>
<path d="M 1635.86 1043.89 L 1639.63 1045.14 L 1638.98 1047.22 L 1637.01 1046.94 L 1635.86 1043.89 z" fill="rgb(83,83,85)" transform="translate(0,0)"></path>
<path d="M 1374.52 922.054 C 1379.45 922.101 1404.45 925.927 1407.55 928.836 L 1407.28 929.713 C 1405.64 934.191 1403.79 937.303 1401.55 941.521 C 1393.27 957.134 1387.24 974.079 1379.11 989.743 C 1369.8 987.629 1359.2 985.054 1349.94 982.71 C 1357.82 965.871 1368.89 939.151 1377.38 923.905 C 1375.98 922.853 1376.05 922.887 1374.52 922.054 z" fill="rgb(255,255,255)" transform="translate(0,0)"></path>
<path d="M 1374.52 922.054 C 1379.45 922.101 1404.45 925.927 1407.55 928.836 L 1407.28 929.713 C 1396.88 926.55 1386.82 926.655 1377.38 923.905 C 1375.98 922.853 1376.05 922.887 1374.52 922.054 z" fill="rgb(134,133,133)" transform="translate(0,0)"></path>
<path d="M 863.507 1076.61 C 884.723 1088.4 916.393 1103.72 938.812 1114.68 C 928.113 1118.08 925.247 1115.65 922.078 1124.87 L 922.178 1126.08 L 920.959 1127.26 C 919.954 1126.54 918.96 1125.8 917.977 1125.05 L 917.269 1124.78 C 910.272 1122.14 901.486 1117.34 894.511 1113.95 C 878.288 1106.06 854.05 1096.62 839.448 1086.99 C 842.57 1085.09 860.125 1077.65 863.507 1076.61 z" fill="rgb(255,255,255)" transform="translate(0,0)"></path>
<path d="M 917.977 1125.05 C 919.343 1124.97 920.71 1124.92 922.078 1124.87 L 922.178 1126.08 L 920.959 1127.26 C 919.954 1126.54 918.96 1125.8 917.977 1125.05 z" fill="rgb(134,133,133)" transform="translate(0,0)"></path>
<path d="M 635.122 1173.85 L 685.599 1207.41 C 692.986 1212.26 704.952 1219.37 711.61 1224.5 C 683.097 1236.75 658.18 1244.27 628.705 1253.35 C 532.434 1283.02 425.378 1293.18 329.223 1257.54 C 312.086 1251.19 284.463 1236.51 277.303 1218.56 C 272.178 1205.72 279.022 1193.84 284.31 1182.01 C 295.21 1182.11 352.818 1183.14 359.286 1181.85 L 360.843 1179.71 C 369.154 1194.13 387.514 1203.27 402.987 1207.02 C 475.658 1224.65 552.336 1208.96 619.985 1180.18 C 624.923 1178.08 630.125 1175.83 635.122 1173.85 z" fill="rgb(33,31,32)" transform="translate(0,0)"></path>
<path d="M 836.978 1086.28 L 839.448 1086.99 C 854.05 1096.62 878.288 1106.06 894.511 1113.95 C 901.486 1117.34 910.272 1122.14 917.269 1124.78 L 917.977 1125.05 C 918.96 1125.8 919.954 1126.54 920.959 1127.26 C 911.757 1130.57 902.893 1134.7 893.97 1138.69 C 861.858 1153.04 830.132 1168.26 797.957 1182.47 C 812.704 1195.6 828.17 1207.25 843.721 1219.43 C 854.507 1227.87 866.315 1238.02 877.619 1245.44 L 876.673 1247.02 C 871.934 1248.98 804.073 1284.51 802.461 1286.08 C 801.065 1286.89 799.789 1287.71 798.3 1288.34 C 794.318 1286.45 784.435 1279.32 780.391 1276.52 C 756.688 1260.13 734.634 1241.19 712.413 1222.81 C 736.545 1209.19 772.063 1192.8 797.701 1179.66 C 780.187 1164.55 742.188 1146.08 725.506 1131.37 C 695.869 1144.84 666.738 1160 636.901 1172.93 C 623.61 1163.17 587.729 1143.87 571.598 1134.07 C 596.767 1122 631.96 1106.15 655.72 1092.74 L 657.799 1092.21 C 680.059 1105.4 706.192 1118.13 727.165 1131.08 C 750.933 1120.28 775.269 1110.31 799.587 1100.82 C 809.752 1096.85 827.214 1089.13 836.978 1086.28 z" fill="rgb(33,31,32)" transform="translate(0,0)"></path>
<path d="M 342.364 1066.78 C 359.469 1058.18 376.803 1048.41 393.788 1039.41 C 422.111 1041.57 460.296 1055.38 483.694 1071.66 C 482.984 1072.77 482.748 1073.4 482.165 1074.68 C 468.829 1082.35 433.231 1102.64 420.191 1107.63 C 414.58 1110.19 402.277 1116.82 396.994 1118.2 C 380.535 1128.66 366.274 1138.83 357.51 1156.94 L 356.574 1159.02 L 355.72 1158.96 C 330.706 1159.17 305.691 1159.14 280.679 1158.87 C 259.284 1120.34 287.704 1097.03 319.338 1079.66 C 322.649 1077.43 338.789 1068.19 342.364 1066.78 z" fill="rgb(33,31,32)" transform="translate(0,0)"></path>
<path d="M 319.338 1079.66 C 319.848 1079.95 320.358 1080.25 320.868 1080.54 C 339.546 1090.91 359.825 1099.6 378.999 1109.01 C 384.251 1111.59 392.413 1114.59 396.71 1117.13 L 396.994 1118.2 C 380.535 1128.66 366.274 1138.83 357.51 1156.94 L 356.574 1159.02 L 355.72 1158.96 C 330.706 1159.17 305.691 1159.14 280.679 1158.87 C 259.284 1120.34 287.704 1097.03 319.338 1079.66 z" fill="rgb(33,31,32)" transform="translate(0,0)"></path>
<path d="M 319.338 1079.66 C 322.649 1077.43 338.789 1068.19 342.364 1066.78 C 343.79 1067.37 344.185 1067.62 345.496 1068.43 C 368.791 1080.95 397.241 1093.42 418.905 1105.59 L 420.191 1107.63 C 414.58 1110.19 402.277 1116.82 396.994 1118.2 L 396.71 1117.13 C 392.413 1114.59 384.251 1111.59 378.999 1109.01 C 359.825 1099.6 339.546 1090.91 320.868 1080.54 C 320.358 1080.25 319.848 1079.95 319.338 1079.66 z" fill="rgb(255,255,255)" transform="translate(0,0)"></path>
<path d="M 319.338 1079.66 C 322.649 1077.43 338.789 1068.19 342.364 1066.78 C 343.79 1067.37 344.185 1067.62 345.496 1068.43 C 338.921 1070.03 327.055 1076.91 320.868 1080.54 C 320.358 1080.25 319.848 1079.95 319.338 1079.66 z" fill="rgb(173,173,173)" transform="translate(0,0)"></path>
<path d="M 418.905 1105.59 L 420.191 1107.63 C 414.58 1110.19 402.277 1116.82 396.994 1118.2 L 396.71 1117.13 C 404.424 1112.24 411.206 1110.06 418.905 1105.59 z" fill="rgb(48,46,46)" transform="translate(0,0)"></path>
<path d="M 330.33 971.417 C 366.348 967.666 431.549 974.799 466.807 982.801 C 449.093 998.248 421.019 1017.5 401.49 1032.23 C 399.063 1034.03 396.347 1036.36 393.97 1038.3 C 356.908 1032.01 312.858 1037.74 275.761 1043.35 C 276.326 1021.65 276.053 999.202 276.06 977.439 C 294.98 974.225 311.237 972.655 330.33 971.417 z" fill="rgb(33,31,32)" transform="translate(0,0)"></path>
<path d="M 1697.52 996.449 C 1704.11 997.493 1718.86 997.09 1726.07 997.166 L 1770.22 997.974 C 1776.34 1009.35 1781.73 1019.78 1777.48 1033.33 C 1770.51 1055.58 1737.4 1076.25 1718.5 1089.06 C 1713.84 1084.71 1649.13 1051.76 1638.98 1047.22 L 1639.63 1045.14 C 1656.5 1036.91 1689.08 1015.17 1695.17 996.312 L 1697.52 996.449 z" fill="rgb(33,31,32)" transform="translate(0,0)"></path>
<path d="M 869.239 58.3316 C 906.083 58.266 911.493 100.962 873.719 106.156 C 870.195 106.066 867.048 105.969 863.551 105.624 C 837.271 103.027 832.546 70.0302 857.436 60.7523 C 861.855 59.105 864.541 58.9632 869.239 58.3316 z" fill="rgb(33,31,32)" transform="translate(0,0)"></path>
<path d="M 865.92 68.1217 C 887.331 67.6307 893.403 87.4084 873.497 96.5637 C 850.853 95.7622 846.662 75.8869 865.92 68.1217 z" fill="rgb(255,255,255)" transform="translate(0,0)"></path>
<path d="M 342.36 1419.11 C 357.115 1418.32 373.053 1420.73 378.234 1436.45 C 383.186 1451.48 370.632 1460.54 358.75 1464.66 C 345.368 1466.12 329.5 1465.19 323.582 1450.63 C 321.364 1445.1 321.493 1438.91 323.938 1433.48 C 327.609 1425.53 334.54 1421.88 342.36 1419.11 z" fill="rgb(33,31,32)" transform="translate(0,0)"></path>
<path d="M 347.121 1428.03 C 368.804 1428.16 372.814 1448.16 353.253 1456.47 C 329.471 1456.5 330.97 1433.82 345.331 1428.72 L 347.121 1428.03 z" fill="rgb(255,255,255)" transform="translate(0,0)"></path>
<path d="M 779.431 778.282 C 792.95 777.224 809.551 780.656 814.259 795.45 C 815.824 800.429 815.278 805.833 812.746 810.398 C 808.561 817.906 801.409 821.471 793.51 823.821 C 785.56 824.501 779.641 825.098 772.028 821.723 C 758.088 815.544 753.031 798.293 763.637 786.635 C 768.07 781.761 773.136 779.94 779.431 778.282 z" fill="rgb(33,31,32)" transform="translate(0,0)"></path>
<path d="M 784.341 787.073 C 805.222 788.74 807.945 808.503 788.169 815.123 C 784.502 814.928 782.094 815.103 778.622 813.591 C 775.506 812.254 773.076 809.697 771.898 806.517 C 768.696 797.784 773.737 789.996 782.425 787.621 L 784.341 787.073 z" fill="rgb(255,255,255)" transform="translate(0,0)"></path>
<path d="M 520.556 59.459 C 521.82 59.4258 523.084 59.3845 524.348 59.335 C 528.92 59.1133 528.168 58.5446 530.792 62.1404 C 536.882 70.4886 542.718 78.7636 549.423 86.6408 C 556.015 77.5783 561.569 68.4876 567.946 59.4201 C 571.623 59.2526 575.003 59.2531 578.675 59.2723 L 578.64 105.734 C 565.347 106.025 566.944 108.203 567.065 95.2644 L 567.057 78.3053 C 546.397 111.806 551.461 107.625 531.018 80.4688 L 530.802 105.864 C 526.821 105.841 522.841 105.846 518.86 105.881 C 518.858 99.4525 517.416 61.3929 520.556 59.459 z" fill="rgb(33,31,32)" transform="translate(0,0)"></path>
<path d="M 613.702 1446.55 C 617.07 1441.59 628.416 1422.12 633.978 1418.95 C 634.188 1418.83 642.398 1418.73 642.455 1419.6 C 643.403 1434.24 642.951 1449.6 643.018 1464.39 C 638.385 1464.35 631.076 1466.42 631.034 1461.25 L 630.989 1438.29 C 613.109 1466.28 615.382 1467.34 596.001 1440.75 C 596.212 1448.64 596.297 1456.53 596.254 1464.42 C 591.555 1464.65 588.619 1464.69 583.984 1464.54 C 583.896 1450.59 583.571 1433.03 584.209 1419.24 C 586.526 1419.18 594.101 1418.44 595.368 1420.1 C 600.912 1427.39 607.813 1437.58 612.717 1445.09 L 613.702 1446.55 z" fill="rgb(33,31,32)" transform="translate(0,0)"></path>
<path d="M 911.719 59.1878 C 915.453 59.1698 919.188 59.1777 922.922 59.2115 C 931.654 68.7521 937.686 76.1829 947.035 85.8114 C 947.048 77.0645 947.133 68.3179 947.291 59.5725 C 951.791 59.4728 955.708 59.4457 960.206 59.5319 C 960.486 74.8585 960.576 90.1879 960.475 105.517 C 956.577 105.547 952.679 105.507 948.783 105.397 C 940.766 96.9336 933.224 88.1052 925.19 79.7382 L 925.024 106.514 C 920.614 106.602 916.204 106.619 911.794 106.565 C 911.631 90.7731 911.606 74.9801 911.719 59.1878 z" fill="rgb(33,31,32)" transform="translate(0,0)"></path>
<path d="M 946.475 1445.24 C 946.548 1441.19 946.482 1437.05 946.642 1433 C 947.254 1417.49 943.964 1419.03 958.957 1419 C 958.975 1424.79 959.607 1461.75 958.441 1464.57 C 955.312 1464.6 951.748 1464.7 948.645 1464.54 C 940.089 1455.19 933.32 1447.93 924.424 1438.86 C 924.553 1447.48 924.61 1456.11 924.593 1464.73 C 920.254 1464.83 916.358 1464.81 912.017 1464.74 C 911.963 1449.73 911.775 1434.09 912.03 1419.11 C 915.376 1419.08 921.152 1417.99 923.427 1420.49 C 931.015 1428.82 938.66 1437.11 946.475 1445.24 z" fill="rgb(33,31,32)" transform="translate(0,0)"></path>
<path d="M 345.891 777.817 C 350.161 778.656 368.016 798.423 372.982 803.386 L 373.099 778.807 C 377.553 778.729 381.183 778.697 385.643 778.938 C 385.86 793.542 386.163 808.716 385.381 823.24 C 385.336 824.07 379.127 824.982 378.548 825.106 C 376.223 823.738 355.689 802.921 351.389 798.926 L 351.014 823.647 C 346.957 823.835 343.301 823.789 339.251 823.731 C 339.226 809.303 339.112 794.658 339.569 780.288 C 339.608 779.069 343.743 778.429 344.227 778.293 L 345.891 777.817 z" fill="rgb(33,31,32)" transform="translate(0,0)"></path>
<path d="M 296.063 58.9669 C 300.265 59.0289 304.467 59.0486 308.669 59.026 C 316.894 75.1156 324.751 89.5714 332.13 106.077 L 318.335 106.052 C 316.77 102.628 315.544 96.1667 311.752 96.5198 C 304.459 96.524 297.167 96.5759 289.875 96.6757 C 288.612 99.9484 287.319 102.873 285.884 106.056 C 281.252 106.104 276.761 106.391 272.119 106.489 C 279.585 90.7692 287.711 74.1689 296.063 58.9669 z" fill="rgb(33,31,32)" transform="translate(0,0)"></path>
<path d="M 301.287 71.6551 C 303.956 74.1349 307.61 83.2936 309.017 87.0141 C 309.45 88.1596 305.286 87.8681 305.25 87.8681 C 299.614 87.8021 293.36 90.0116 295.943 84.006 L 301.287 71.6551 z" fill="rgb(255,255,255)" transform="translate(0,0)"></path>
<path d="M 725.377 59.3994 C 729.217 59.2783 732.748 59.2494 736.589 59.2706 C 745.244 75.3752 752.906 89.3951 760.295 106.215 C 755.941 106.417 751.585 106.554 747.227 106.626 C 744.092 99.275 745.66 97.1152 738.25 97.0465 C 731.849 97.0589 724.823 96.8936 718.488 97.1418 C 717.072 100.031 715.592 103.152 714.148 105.998 C 712.027 105.98 702.956 106.575 701.796 105.301 C 701.605 102.608 722.696 63.2566 725.377 59.3994 z" fill="rgb(33,31,32)" transform="translate(0,0)"></path>
<path d="M 730.229 71.6284 C 731.939 73.3426 738.184 85.3278 737.842 87.3273 C 737.335 87.822 736.386 87.6818 735.749 87.6653 L 734.25 87.6423 L 726.439 87.7165 C 725.785 87.7212 724.557 87.8366 724.065 87.3639 C 723.565 85.4807 729.066 74.2573 730.229 71.6284 z" fill="rgb(255,255,255)" transform="translate(0,0)"></path>
<path d="M 435.194 804.555 C 435.243 799.299 435.293 793.744 435.274 788.5 C 435.231 777.193 435.184 778.55 445.821 778.867 L 447.681 778.915 C 447.323 793.937 447.659 808.926 447.287 823.789 C 435.964 823.835 438.689 825.653 430.97 817.006 C 425.235 810.581 418.901 803.938 413.126 797.445 L 413.015 824.224 C 408.993 824.158 404.97 824.139 400.948 824.167 L 400.983 779.032 C 402.479 779.032 403.975 779.02 405.471 778.995 C 405.837 778.99 409.946 778.844 410.472 779.33 C 419.038 787.239 426.787 796.358 435.194 804.555 z" fill="rgb(33,31,32)" transform="translate(0,0)"></path>
<path d="M 826.78 778.209 C 831.007 778.191 834.861 776.879 837.427 780.121 C 844.27 788.765 852.701 796.57 860.717 804.131 C 860.817 799.86 858.94 777.93 863.513 778.748 C 864.473 778.919 872.384 778.399 872.412 779.389 C 872.808 793.152 873.7 809.741 872.78 823.46 C 869.666 823.365 862.577 824.178 860.645 821.651 C 853.798 812.698 846.048 804.685 838.109 796.716 C 838.076 805.787 838.126 814.858 838.259 823.928 C 834.491 824.069 830.381 824.026 826.601 823.97 C 826.586 808.82 826.245 793.309 826.78 778.209 z" fill="rgb(33,31,32)" transform="translate(0,0)"></path>
<path d="M 646.542 778.519 C 650.626 778.403 654.332 778.456 658.371 778.409 C 665.881 793.348 674.203 808.469 680.761 823.78 C 676.4 823.901 672.037 823.983 667.675 824.025 C 664.065 815.95 666.227 815.079 658.25 814.965 L 640.349 814.929 C 639.058 817.967 638.082 820.751 636.714 823.828 C 632.021 823.841 627.328 823.897 622.636 823.998 C 629.04 812.124 639.924 788.313 646.542 778.519 z" fill="rgb(33,31,32)" transform="translate(0,0)"></path>
<path d="M 651.473 789.766 C 654.096 792.818 657.303 801.177 659.125 805.025 C 659.673 806.185 655.513 806.135 655.246 806.15 C 640.542 805.707 644.658 805.561 651.473 789.766 z" fill="rgb(255,255,255)" transform="translate(0,0)"></path>
<path d="M 820.477 1419.1 L 833.68 1419.15 C 833.71 1425.01 833.682 1430.87 833.596 1436.73 C 840.853 1436.8 848.111 1436.79 855.367 1436.71 C 855.365 1430.89 855.434 1425.06 855.575 1419.24 C 859.745 1419.15 863.917 1419.13 868.087 1419.19 C 868.173 1433.66 868.489 1450.24 868.079 1464.59 C 863.798 1464.66 859.515 1464.67 855.234 1464.62 C 855.281 1458.4 855.295 1452.17 855.277 1445.94 L 833.8 1446.02 C 833.803 1452.32 833.832 1458.03 833.58 1464.35 C 828.786 1464.67 825.681 1464.78 820.867 1464.81 C 820.932 1449.33 821.028 1434.57 820.477 1419.1 z" fill="rgb(33,31,32)" transform="translate(0,0)"></path>
<path d="M 674.825 1418.85 C 678.989 1418.78 683.154 1418.77 687.318 1418.85 C 694.603 1434.39 702.399 1449.68 710.694 1464.71 C 706.358 1464.76 702.022 1464.77 697.687 1464.74 C 695.732 1460.99 694.505 1455.55 690.244 1455.14 C 683.532 1455.12 676.82 1455.13 670.108 1455.2 C 668.37 1458.5 666.903 1461.37 665.041 1464.64 C 660.657 1464.57 656.275 1464.44 651.895 1464.24 C 659.59 1449.4 666.932 1433.48 674.825 1418.85 z" fill="rgb(33,31,32)" transform="translate(0,0)"></path>
<path d="M 680.543 1430.74 C 683.468 1433.58 686.259 1441.95 687.912 1446.02 C 688.356 1447.11 684.45 1447 684.248 1447.01 C 682.384 1446.98 675.291 1447.26 674.401 1446.38 C 673.972 1444.38 679.301 1433.39 680.543 1430.74 z" fill="rgb(255,255,255)" transform="translate(0,0)"></path>
<path d="M 466.012 1419.33 C 469.816 1419.14 473.623 1419.03 477.431 1419.01 C 483.886 1432.84 493.368 1451.74 501.338 1464.55 C 496.755 1464.63 492.171 1464.65 487.587 1464.62 C 485.558 1460.73 484.736 1455.97 480.25 1455.7 L 459.294 1455.7 C 458.307 1458.36 457.57 1460.87 456.736 1463.57 L 456.281 1465 L 442.375 1464.93 C 450.638 1449.76 457.227 1434.51 466.012 1419.33 z" fill="rgb(33,31,32)" transform="translate(0,0)"></path>
<path d="M 471.176 1430.79 C 473.681 1435.2 475.913 1439.85 477.798 1444.56 C 478.999 1447.56 474.149 1446.74 472.238 1446.84 C 471.235 1446.79 470.232 1446.76 469.229 1446.73 C 469.168 1446.72 464.178 1446.86 464.425 1445.88 C 465.605 1441.18 468.952 1435.12 471.176 1430.79 z" fill="rgb(255,255,255)" transform="translate(0,0)"></path>
<path d="M 296.175 778.66 C 300.114 778.716 303.86 778.658 307.822 778.799 C 315.349 792.932 323.732 808.861 330.357 823.427 C 326.355 823.64 322.559 823.857 318.546 823.983 C 315.196 818.117 315.622 814.82 309.25 814.796 L 290.185 814.834 C 288.585 817.86 287.216 820.734 285.519 823.762 C 281.177 823.824 276.834 823.794 272.493 823.67 C 279.186 810.44 288.736 790.813 296.175 778.66 z" fill="rgb(33,31,32)" transform="translate(0,0)"></path>
<path d="M 301.483 790.749 C 303.17 792.435 305.254 797.345 306.38 799.719 L 307.19 801.451 C 308.882 805.022 309.584 805.808 305.249 805.83 C 291.171 805.598 294.42 805.764 301.483 790.749 z" fill="rgb(255,255,255)" transform="translate(0,0)"></path>
<path d="M 493.477 778.489 C 496.724 778.509 499.836 778.41 503.038 778.404 L 503.032 796.297 C 510.418 796.361 517.805 796.362 525.191 796.302 C 525.163 790.486 525.167 784.669 525.201 778.853 C 529.337 778.897 533.363 778.888 537.513 778.994 C 537.674 792.995 538.042 808.942 537.12 822.945 C 537.073 823.662 534.435 824.373 534.006 824.515 C 532.821 824.359 531.635 824.219 530.447 824.093 C 529.774 824.028 526.714 823.916 526.385 823.341 C 524.756 820.491 525.507 808.307 525.563 805.007 C 518.055 804.931 510.545 804.92 503.036 804.974 L 503.047 823.615 L 490.581 823.471 C 490.553 815.139 489.99 788.812 491.178 779.13 C 491.246 778.576 492.934 778.533 493.477 778.489 z" fill="rgb(33,31,32)" transform="translate(0,0)"></path>
<path d="M 632.03 59.3717 L 633.734 59.4014 C 636.035 59.4222 641.774 58.7195 641.693 62.345 C 641.49 71.3243 642.425 80.5622 641.707 89.5025 C 640.746 101.466 629.084 106.42 618.496 106.832 C 601.053 107.346 593.776 97.6214 593.366 81.25 C 593.288 74.182 593.305 67.1132 593.419 60.0457 C 598.349 59.6394 601.913 59.6122 606.817 59.6161 C 606.896 72.9331 601.48 105.637 623.994 95.8588 C 634.963 91.0953 623.496 62.2662 632.03 59.3717 z" fill="rgb(33,31,32)" transform="translate(0,0)"></path>
<path d="M 490.365 59.7846 C 503.328 59.3565 502.918 57.3055 502.889 68.75 C 502.873 78.6611 504.91 92.0329 497.747 99.7594 C 488.825 109.383 468.983 108.302 460.105 99.4522 C 453.142 92.5118 454.99 69.3845 455.463 59.9316 C 459.609 59.7868 463.758 59.7434 467.907 59.8016 C 467.951 67.0114 466.541 88.5841 470.427 93.3555 C 472.051 95.3692 474.416 96.6441 476.991 96.8924 C 495.637 98.6848 490.194 72.5258 490.365 59.7846 z" fill="rgb(33,31,32)" transform="translate(0,0)"></path>
<path d="M 992.679 1419.15 C 1005.31 1418.34 1011.43 1418.13 1020.93 1426.29 C 1018.34 1429 1015.57 1434.47 1012.7 1432.63 C 980.864 1412.25 972.323 1465.45 1008.88 1455.35 C 1010.56 1454.89 1010.02 1443.27 1010.06 1441.09 C 1025.32 1440.83 1020.54 1442.96 1021.1 1460.35 L 1018.02 1461.68 C 974.097 1480.39 952.06 1430.44 992.679 1419.15 z" fill="rgb(33,31,32)" transform="translate(0,0)"></path>
<path d="M 356.218 59.1985 C 371.136 58.0507 375.277 57.8813 386.593 66.3496 C 376.589 73.8529 381.766 73.6822 373.599 70.4466 C 339.726 57.0264 342.861 111.192 376.657 94.094 C 377.401 93.2368 378.152 91.9603 379.434 92.0398 C 380.613 92.8308 380.442 96.0388 382.678 96.362 C 382.763 96.08 386.885 97.7838 385.789 98.8899 C 372.674 112.122 345.195 109.094 337.808 91.5435 C 335.424 85.7656 335.614 79.2454 338.332 73.6166 C 342.129 65.6334 348.405 62.1797 356.218 59.1985 z" fill="rgb(33,31,32)" transform="translate(0,0)"></path>
<path d="M 784.852 1418.25 C 789.955 1418.12 808.069 1419.21 809.216 1426.06 C 808.376 1427.67 803.992 1431.16 802.511 1432.55 C 800.59 1431.87 798.787 1429.73 796.473 1429.03 C 787.074 1426.22 777.019 1428.74 774.373 1439.17 C 773.388 1443.01 774.104 1447.1 776.339 1450.38 C 782.647 1459.66 794.149 1455.81 802.01 1452.19 C 802.958 1452.78 810.454 1456.29 809.185 1457.94 C 803.49 1467 779.568 1467.93 771.608 1461.73 C 749.951 1444.85 761.036 1422.69 784.852 1418.25 z" fill="rgb(33,31,32)" transform="translate(0,0)"></path>
<path d="M 409.706 1419.12 C 423.955 1418.34 427.093 1418.85 438.347 1426.35 C 437.922 1426.77 431.689 1432.54 431.389 1432.74 C 427.628 1432.86 421.527 1425.41 409.999 1429.93 C 406.461 1431.3 403.64 1434.06 402.202 1437.56 C 396.498 1451.65 415.367 1461.35 428.338 1453.49 L 429.692 1452.7 C 430.247 1451.63 430.269 1450.84 431.678 1452.16 C 437.617 1457.07 439.456 1460.1 430.613 1463.41 C 415.943 1468.89 394.819 1466.04 389.429 1449.38 C 387.573 1443.45 388.234 1437.03 391.258 1431.6 C 395.427 1424.13 401.83 1421.32 409.706 1419.12 z" fill="rgb(33,31,32)" transform="translate(0,0)"></path>
<path d="M 413.32 59.2516 C 423.159 58.346 432.257 57.7049 440.582 64.0239 C 444.605 67.0776 438.716 70.9391 436.58 73.0001 C 428.405 68.1765 425.163 65.9724 415.708 69.5741 C 407.47 72.7121 404.005 80.8716 408.34 88.7597 C 413.741 98.5851 425.428 99.0319 434.538 94.1076 C 436.564 92.5359 451.95 97.6649 435.994 103.856 C 421.182 109.604 402.082 106.897 395.77 91.0118 C 389.448 75.102 398.499 64.3446 413.32 59.2516 z" fill="rgb(33,31,32)" transform="translate(0,0)"></path>
<path d="M 1171.09 1429.19 C 1184.51 1428.34 1195.72 1430.64 1195.62 1447 C 1195.57 1455.58 1186.58 1458.87 1185.85 1461.48 C 1187.42 1465.17 1200.53 1458.25 1196.06 1465.77 L 1195.35 1466.98 C 1185.3 1469.11 1187.81 1469.64 1178.84 1464.48 C 1167.57 1457.98 1153.46 1458.19 1159.29 1438.6 C 1160.76 1433.66 1166.2 1431.19 1171.09 1429.19 z" fill="rgb(33,31,32)" transform="translate(0,0)"></path>
<path d="M 1172.02 1436.36 C 1175.48 1434.58 1179.65 1434.86 1182.84 1437.09 C 1186.04 1439.32 1187.73 1443.14 1187.25 1447 C 1186.77 1450.87 1184.19 1454.15 1180.55 1455.53 C 1175.34 1457.51 1169.49 1455.08 1167.22 1449.98 C 1164.95 1444.89 1167.06 1438.91 1172.02 1436.36 z" fill="rgb(255,255,255)" transform="translate(0,0)"></path>
<path d="M 1282.05 69.0999 C 1309.91 67.2842 1314.96 90.804 1294.27 101.27 C 1288.58 102.076 1285.25 102.52 1279.61 100.597 C 1275.41 99.1477 1271.98 96.0423 1270.12 92.0017 C 1265.01 80.8771 1272.16 73.1717 1282.05 69.0999 z" fill="rgb(33,31,32)" transform="translate(0,0)"></path>
<path d="M 1284.19 75.3818 C 1289.45 73.6145 1295.17 76.312 1297.15 81.4949 C 1299.13 86.6779 1296.67 92.4996 1291.57 94.6885 C 1288.08 96.1857 1284.05 95.6526 1281.07 93.2994 C 1278.1 90.9463 1276.65 87.1512 1277.3 83.4121 C 1277.95 79.6731 1280.6 76.5908 1284.19 75.3818 z" fill="rgb(255,255,255)" transform="translate(0,0)"></path>
<path d="M 1339.08 780.996 C 1351.21 781.041 1372.55 777.981 1374.86 795.514 C 1375.51 800.481 1372.23 804.508 1369.12 807.98 C 1358.74 813.739 1350.87 812.704 1339 812.694 C 1338.93 802.128 1338.96 791.561 1339.08 780.996 z" fill="rgb(33,31,32)" transform="translate(0,0)"></path>
<path d="M 1347.7 787.393 C 1359.87 786.824 1371.91 790.453 1362.34 804.5 C 1343.51 810.483 1346.36 804.11 1347.7 787.393 z" fill="rgb(255,255,255)" transform="translate(0,0)"></path>
<path d="M 1395.36 780.164 C 1420.35 780.549 1427.38 806.433 1401.03 813.074 C 1373.68 810.912 1372.4 785.828 1395.36 780.164 z" fill="rgb(33,31,32)" transform="translate(0,0)"></path>
<path d="M 1394.03 787.435 C 1397.26 785.829 1401.11 786.091 1404.09 788.12 C 1407.07 790.149 1408.73 793.629 1408.42 797.223 C 1408.11 800.817 1405.89 803.966 1402.61 805.459 C 1397.65 807.712 1391.8 805.577 1389.46 800.66 C 1387.12 795.744 1389.16 789.859 1394.03 787.435 z" fill="rgb(255,255,255)" transform="translate(0,0)"></path>
<path d="M 1611.28 780.421 C 1613.12 780.399 1619.02 779.677 1619.62 781.092 C 1621.87 786.452 1623.92 794.192 1625.95 799.576 L 1626.94 802.19 C 1627.83 799.124 1632.53 780.15 1636.4 780.416 C 1637.21 780.472 1641.28 780.387 1642.29 780.351 C 1638.83 789.323 1634.99 798.928 1632.38 808.173 C 1630.6 814.445 1629.34 813.082 1621.7 812.656 L 1615.84 795.184 C 1615.33 794.447 1614.93 793.604 1614.34 792.925 C 1612.86 793.57 1607.78 810.04 1606.88 812.565 C 1604.02 812.546 1601.21 812.332 1598.2 812.325 C 1594.87 802.634 1590.93 793.02 1587.52 783.471 C 1585.89 778.918 1594.93 780.775 1595.01 780.877 C 1597.95 784.915 1599.55 794.41 1602.08 799.268 C 1602.55 800.174 1602.86 801.146 1603.18 801.946 C 1605.57 795.563 1608.65 786.357 1611.28 780.421 z" fill="rgb(33,31,32)" transform="translate(0,0)"></path>
<path d="M 761.291 59.4813 C 775.242 59.3031 790.678 58.7802 804.428 59.8686 C 804.533 59.8769 807.816 68.8435 801.56 68.6517 C 797.332 68.5278 793.102 68.5053 788.873 68.5843 C 788.811 77.0387 788.805 85.4933 788.856 93.9477 L 788.945 106.391 C 784.717 106.475 780.49 106.581 776.263 106.708 C 775.474 93.9089 775.944 81.6409 775.653 68.8426 C 771.242 68.6738 763.734 69.2154 760.063 67.998 C 759.92 67.9506 756.641 60.6948 761.291 59.4813 z" fill="rgb(33,31,32)" transform="translate(0,0)"></path>
<path d="M 709.231 1418.97 C 714.187 1418.92 751.009 1418.47 752.883 1419.19 C 753.536 1420.07 753.241 1420.47 753.378 1421.48 C 754.546 1430.15 749.759 1427.66 738.942 1428 C 738.794 1435.25 738.753 1442.5 738.819 1449.75 L 738.861 1464.98 C 734.494 1464.98 730.127 1464.95 725.761 1464.89 C 725.852 1452.51 725.873 1440.13 725.826 1427.74 C 711.232 1427.61 708.751 1431.74 709.231 1418.97 z" fill="rgb(33,31,32)" transform="translate(0,0)"></path>
<path d="M 679.374 778.73 C 688.096 778.575 700.92 778.205 707.741 778.694 C 718.76 779.483 724.203 775.229 723.615 784.069 C 723.232 789.846 712.156 787.2 708.096 787.281 C 708.026 794.471 708.021 801.662 708.081 808.852 C 708.149 814.023 708.287 818.226 708.65 823.396 C 704.338 823.545 700.024 823.627 695.709 823.643 C 695.837 811.661 695.837 799.679 695.711 787.698 C 680.878 787.511 679.852 792.083 679.374 778.73 z" fill="rgb(33,31,32)" transform="translate(0,0)"></path>
<path d="M 657.665 59.4229 C 662.328 59.3502 666.222 59.4024 670.86 59.5414 C 670.612 72.0866 670.543 84.6347 670.653 97.1818 C 673.977 97.2023 692.277 96.7032 696.176 97.7203 C 697.183 97.9831 696.802 104.4 696.638 106.033 L 657.664 105.955 C 657.636 92.3709 656.84 72.2388 657.665 59.4229 z" fill="rgb(33,31,32)" transform="translate(0,0)"></path>
<path d="M 279.246 1419.03 C 283.361 1418.97 287.477 1418.98 291.592 1419.04 L 291.805 1455.95 C 294.857 1455.97 314.16 1455.35 317.428 1456.76 C 318.336 1457.15 317.111 1463.14 316.838 1464.82 L 279.185 1464.74 C 279.139 1450.01 278.867 1433.67 279.246 1419.03 z" fill="rgb(33,31,32)" transform="translate(0,0)"></path>
<path d="M 1374.2 1429.94 C 1381.77 1429.58 1397.52 1428.27 1402.23 1434.86 C 1407.63 1442.43 1402.73 1446.97 1397.81 1451.41 C 1400.53 1455.54 1406.53 1460.43 1401.99 1462.94 C 1391.63 1460.98 1396.96 1462.36 1389.43 1453.58 C 1388.76 1452.8 1384.74 1452.11 1384.01 1452.39 C 1381.13 1454.04 1384.21 1459 1382.38 1461.37 C 1381.49 1462.52 1375.07 1462.05 1374.81 1461.47 C 1373.36 1458.29 1374.25 1451.91 1374.15 1448 C 1374.01 1442.1 1374.14 1435.87 1374.2 1429.94 z" fill="rgb(33,31,32)" transform="translate(0,0)"></path>
<path d="M 1382.83 1435.9 L 1387.01 1436.02 C 1391.65 1436.17 1396.27 1437.22 1395.69 1442.91 L 1395.56 1444.07 L 1395.43 1445.55 L 1394.03 1445.91 C 1380.99 1449.31 1382.56 1446.57 1382.83 1435.9 z" fill="rgb(255,255,255)" transform="translate(0,0)"></path>
<path d="M 510.065 1419.32 C 514.217 1419.22 518.371 1419.23 522.523 1419.33 C 522.742 1431.59 522.508 1443.74 522.699 1456 C 529.526 1456.04 540.074 1455.61 546.81 1456.57 C 547.863 1456.72 547.826 1463.84 547.876 1464.72 C 535.164 1464.75 522.452 1464.71 509.741 1464.6 C 509.882 1450.33 509.337 1433.25 510.065 1419.32 z" fill="rgb(33,31,32)" transform="translate(0,0)"></path>
<path d="M 1427.54 779.621 C 1434.95 781.419 1440.27 793.174 1445.34 799.818 C 1449.05 793.702 1452.67 787.52 1456.63 781.554 C 1457.66 779.995 1463.88 780.416 1463.9 781.672 C 1464.03 791.461 1464.35 801.861 1463.67 811.577 C 1463.68 811.465 1456.25 815.9 1456.11 809.25 C 1456.1 804.135 1456.07 799.451 1455.86 794.335 C 1442.36 816.274 1446.85 813.817 1433.16 795.603 C 1433.11 799.165 1433.76 808.491 1432.29 811.817 C 1431.51 812.761 1425.69 812.075 1425.62 811.496 C 1425.05 806.415 1423.15 782.763 1426.59 780.318 L 1427.54 779.621 z" fill="rgb(33,31,32)" transform="translate(0,0)"></path>
<path d="M 1504.03 69.3483 C 1511.71 69.3275 1527.8 68.1447 1532.53 74.8366 C 1538.18 82.8298 1531.02 87.199 1527.47 91.1867 C 1529.2 93.6833 1534.62 99.2258 1532.59 101.516 C 1517.6 100.67 1527.73 96.6806 1516.53 92.3511 C 1508.64 89.3037 1518.27 106.041 1504.37 100.624 C 1503.59 100.319 1503.98 71.7024 1504.03 69.3483 z" fill="rgb(33,31,32)" transform="translate(0,0)"></path>
<path d="M 1512.78 75.601 C 1521.91 75.8423 1528.39 74.2104 1525.24 85.0109 C 1511.22 88.4583 1512.61 87.9822 1512.78 75.601 z" fill="rgb(255,255,255)" transform="translate(0,0)"></path>
<path d="M 1615.46 69.3591 C 1622.6 69.2205 1635.84 68.053 1641.3 72.674 C 1649.39 79.5257 1643.05 86.1778 1639.53 91.4155 C 1639.4 95.5455 1646.02 97.942 1642.9 101.61 C 1641.33 101.503 1637.95 101.574 1636.56 101.058 C 1633.5 99.8204 1633.79 93.1663 1630.46 92.8352 C 1620.88 91.8824 1624.62 94.0599 1623.33 100.581 C 1623.12 101.601 1615.7 101.843 1615.64 100.79 C 1615.03 90.6884 1615.21 79.6029 1615.46 69.3591 z" fill="rgb(33,31,32)" transform="translate(0,0)"></path>
<path d="M 1623.74 75.2853 C 1633.16 75.2475 1638.07 74.6963 1635.92 85.2903 C 1622.31 88.5538 1623.62 86.8526 1623.74 75.2853 z" fill="rgb(255,255,255)" transform="translate(0,0)"></path>
<path d="M 580.915 778.855 C 585.077 778.818 588.937 778.863 593.094 778.929 L 593.206 814.946 C 597.951 814.988 613.221 814.513 618.254 815.484 C 619.225 815.672 618.834 821.647 618.834 823.084 C 606.902 823.663 592.881 823.327 580.779 823.302 L 580.915 778.855 z" fill="rgb(33,31,32)" transform="translate(0,0)"></path>
<path d="M 1672.29 69.0102 C 1679.06 69.3108 1678.2 68.4118 1683.11 73.4432 C 1687.42 77.873 1691.96 82.3895 1696.29 86.8321 C 1696.36 82.1186 1695.64 74.467 1697.18 70.1328 C 1697.64 68.8427 1703.82 69.2486 1703.88 70.1016 C 1704.51 78.6634 1705.46 93.3169 1704.47 101.569 C 1695.03 100.394 1698.04 101.882 1690.75 93.9108 C 1687.62 90.4858 1683.97 86.6492 1680.77 83.2064 C 1680.71 87.4785 1680.69 91.7509 1680.69 96.0233 C 1680.74 105.167 1672.58 100.065 1672.61 100.521 C 1671.95 90.5684 1672.17 79.0472 1672.29 69.0102 z" fill="rgb(33,31,32)" transform="translate(0,0)"></path>
<path d="M 1722.94 1447.84 C 1722.97 1442.29 1722.59 1435.84 1723.38 1430.44 C 1723.59 1429.02 1730.33 1429.45 1730.41 1430.29 C 1731.36 1440.48 1730.86 1451.78 1730.88 1462.1 L 1726.48 1461.88 C 1722.41 1461.65 1712.12 1448.83 1707.06 1444.56 C 1707.01 1449.62 1707.6 1456.4 1706.39 1461.1 C 1706.06 1462.36 1699.58 1462 1699.5 1461.23 C 1698.36 1451.25 1698.74 1439.66 1698.91 1429.48 C 1706.94 1429.68 1705.58 1429.83 1711.53 1435.93 C 1715.28 1439.78 1719.19 1443.95 1722.94 1447.84 z" fill="rgb(33,31,32)" transform="translate(0,0)"></path>
<path d="M 1314.59 69.0679 C 1314.89 69.0705 1320.03 69.0552 1320.07 69.0561 C 1322.93 69.1227 1335.58 85.2075 1338.3 88.2393 C 1338.37 82.7149 1337.84 74.9169 1338.96 69.6776 C 1339.14 68.8427 1345.43 68.8174 1345.52 69.6582 C 1346.61 79.9367 1345.9 91.3785 1345.95 101.913 C 1345.2 101.862 1340.99 101.657 1340.94 101.636 C 1335.48 99.2907 1326.58 87.182 1322.62 82.7272 C 1322.61 88.1964 1323.05 96.2085 1322.21 101.352 C 1322.22 101.293 1314.24 104.725 1314.39 98.5608 C 1314.62 88.8828 1314.4 78.8157 1314.59 69.0679 z" fill="rgb(33,31,32)" transform="translate(0,0)"></path>
<path d="M 1555.2 798.097 C 1555.23 793.357 1554.62 785.829 1555.79 781.389 C 1556.18 779.925 1563.71 780.43 1563.77 781.345 C 1564.35 790.181 1565.04 803.977 1563.33 812.584 C 1553.46 812.395 1549.08 802.596 1540.94 794.601 L 1540.74 808.019 C 1540.71 813.778 1537.63 812.95 1533 811.975 C 1531.71 811.704 1532.44 783.704 1532.53 780.468 C 1543.37 781.359 1547.34 789.699 1555.2 798.097 z" fill="rgb(33,31,32)" transform="translate(0,0)"></path>
<path d="M 1430.06 68.6729 C 1439.27 69.6429 1446.18 81.309 1452.64 88.3765 C 1453.01 82.622 1452.06 75.1427 1453.51 69.7391 C 1453.65 69.2169 1460.01 69.0412 1460.11 69.8434 C 1461.25 79.4665 1460.74 91.4164 1460.91 101.413 C 1453.4 100.852 1454.14 102.22 1449.06 96.4949 C 1445.2 92.1526 1441.07 87.5599 1437.13 83.301 C 1437.08 88.8244 1437.5 95.9509 1436.55 101.318 C 1436.46 101.791 1428.98 102.675 1429.1 100.9 C 1429.59 93.3993 1427.45 75.055 1430.06 68.6729 z" fill="rgb(33,31,32)" transform="translate(0,0)"></path>
<path d="M 1520.26 1429.29 C 1521.51 1429.32 1527.91 1429.03 1528.69 1430.34 C 1534.05 1439.63 1539.65 1450.22 1542.95 1460.42 C 1542.97 1462.47 1536.75 1462.47 1536.03 1462.06 C 1532.57 1460.11 1534.79 1455.93 1530.18 1454.74 C 1521.12 1454.81 1516 1452.2 1514.66 1461.42 C 1514.54 1462.25 1506.15 1462.05 1506.11 1461.35 C 1505.97 1458.94 1508.13 1455.22 1509.08 1453.01 C 1512.53 1444.95 1515.98 1436.95 1520.26 1429.29 z" fill="rgb(33,31,32)" transform="translate(0,0)"></path>
<path d="M 1523.76 1437.77 C 1525.61 1439.68 1529.94 1446.6 1527.7 1449.39 C 1516.75 1448.53 1519.11 1449.34 1523.76 1437.77 z" fill="rgb(255,255,255)" transform="translate(0,0)"></path>
<path d="M 1483.91 780.928 C 1485.27 780.902 1486.64 780.858 1488 780.794 C 1490.49 780.664 1492.61 779.855 1493.86 782.44 L 1505.91 807.96 C 1508.81 814.028 1505.31 811.918 1499.59 811.752 C 1497.59 811.694 1498.74 806.477 1494.25 805.714 C 1491.66 805.712 1481.54 805.467 1481.04 805.981 C 1477.16 810.542 1478.97 813.99 1470.35 812.267 C 1467.26 811.65 1482.1 785.804 1483.91 780.928 z" fill="rgb(33,31,32)" transform="translate(0,0)"></path>
<path d="M 1488.37 789.691 C 1490.94 792.348 1495.01 798.18 1490.69 800.851 C 1481.5 798.712 1483.4 799.165 1488.37 789.691 z" fill="rgb(255,255,255)" transform="translate(0,0)"></path>
<path d="M 1254.44 1429.92 C 1255.17 1429.9 1255.9 1429.88 1256.63 1429.84 C 1257.23 1429.81 1260.59 1429.56 1261.04 1430.02 C 1265.87 1434.95 1274.4 1455.76 1277.18 1461.7 C 1262.33 1462.45 1271.14 1460.81 1264.79 1455.02 C 1260.21 1455.03 1255.53 1454.78 1251 1455.09 C 1247.19 1455.35 1249.61 1463.07 1245.04 1462.3 C 1243.83 1462.1 1238.39 1462.76 1239.63 1459.96 C 1244.16 1449.77 1249.05 1439.7 1254.44 1429.92 z" fill="rgb(33,31,32)" transform="translate(0,0)"></path>
<path d="M 1257.45 1438.6 C 1260.43 1441.44 1264.47 1447.16 1259.76 1450.08 C 1250.45 1447.76 1253 1448.25 1257.45 1438.6 z" fill="rgb(255,255,255)" transform="translate(0,0)"></path>
<path d="M 815.917 59.3423 C 820.241 59.2279 824.568 59.2057 828.893 59.2756 C 828.973 74.1642 829.273 91.748 828.727 106.53 C 824.41 106.575 820.092 106.561 815.775 106.489 C 815.746 91.4751 815.37 74.149 815.917 59.3423 z" fill="rgb(33,31,32)" transform="translate(0,0)"></path>
<path d="M 1655.68 780.151 C 1657.12 780.209 1658.56 780.254 1660 780.287 C 1661.9 780.32 1664.11 779.792 1664.8 782.007 C 1667.99 792.325 1674.81 801.82 1679.52 811.449 C 1679.71 811.834 1678.25 812.358 1677.99 812.2 C 1675.4 811.855 1671.44 813.315 1670.16 810.069 C 1669.34 807.981 1668.59 806.652 1666.7 805.394 C 1661.74 805.322 1656.78 805.28 1651.82 805.269 C 1650.72 807.154 1649.62 810.126 1647.98 811.481 C 1647.01 812.279 1641.75 812.57 1640.87 811.313 C 1641.42 809.135 1653.93 783.541 1655.68 780.151 z" fill="rgb(33,31,32)" transform="translate(0,0)"></path>
<path d="M 1658.63 789.57 C 1660.48 791.252 1665.28 797.727 1662.6 799.828 C 1652.43 799.002 1654.26 799.344 1658.63 789.57 z" fill="rgb(255,255,255)" transform="translate(0,0)"></path>
<path d="M 1725.17 69.232 C 1727.13 69.0664 1751.95 68.0673 1743.73 76.6985 C 1740.95 79.6152 1736.83 75.9499 1733.81 75.4586 C 1730.82 74.9723 1727.23 75.7504 1724.59 77.5041 C 1720.12 79.1317 1719.81 90.09 1723.45 92.2185 C 1736.46 99.839 1737.53 94.5837 1738.06 85.2106 C 1748.42 83.8064 1745.12 88.812 1745.02 99.0578 C 1709.25 108.928 1702.17 79.7724 1725.17 69.232 z" fill="rgb(33,31,32)" transform="translate(0,0)"></path>
<path d="M 1394.23 69.3124 C 1402.36 69.2932 1411.27 68.8067 1419.26 69.6476 C 1420.42 70.2766 1420.35 74.0561 1419.59 74.6749 C 1416.68 77.0624 1402.49 72.1415 1402.61 77.437 C 1402.67 80.1702 1402.47 81.8337 1405.48 81.8123 C 1409.27 81.7856 1413.84 81.3084 1417.53 82.0225 C 1419.44 82.4513 1418.31 87.2252 1417.88 87.3997 C 1415.01 88.5741 1405.57 87.9349 1402.55 87.9252 C 1402.68 89.387 1402.61 91.3808 1403.15 94.5172 C 1405.06 98.9611 1426.44 90.9622 1421.5 100.685 C 1420.39 102.866 1398.07 101.764 1394.4 101.723 L 1394.23 69.3124 z" fill="rgb(33,31,32)" transform="translate(0,0)"></path>
<path d="M 1289.91 1429.17 C 1300.9 1428.5 1299.65 1428.81 1309.83 1430.92 C 1309.05 1431.97 1308.29 1433.02 1307.54 1434.09 C 1303.8 1439.58 1305.5 1437.03 1299.4 1435.43 C 1292.31 1433.58 1286.45 1438.87 1296.31 1441.57 C 1299.35 1442.77 1304.12 1443.6 1306.58 1445.86 C 1316.03 1454.54 1308 1459.19 1300.7 1462.1 C 1284.8 1463.46 1273.38 1455.95 1287.4 1454.32 C 1288.17 1454.23 1299.11 1457.75 1300.97 1454.86 C 1305.46 1447.87 1284.1 1449.1 1282.26 1442.04 C 1279.76 1434.72 1284.92 1431.97 1289.91 1429.17 z" fill="rgb(33,31,32)" transform="translate(0,0)"></path>
<path d="M 883.394 1419.07 L 895.933 1419.11 C 896.113 1433.02 896.428 1450.89 895.844 1464.67 C 891.659 1464.76 887.472 1464.76 883.287 1464.67 C 883.205 1449.47 883.241 1434.27 883.394 1419.07 z" fill="rgb(33,31,32)" transform="translate(0,0)"></path>
<path d="M 1755.49 1429.28 C 1759.56 1429.56 1778.02 1431.58 1767.34 1438.12 C 1766.46 1438.66 1747.87 1430.39 1746.98 1444.5 C 1746.49 1452.24 1751.5 1455.16 1758.52 1455.2 C 1768.26 1455.26 1761.59 1448.14 1766.05 1443.99 L 1767.52 1442.65 C 1773.53 1445.97 1771.08 1451.83 1771.02 1459.02 L 1769.29 1459.56 C 1735.03 1470.42 1727.66 1434.24 1753.49 1429.66 L 1755.49 1429.28 z" fill="rgb(33,31,32)" transform="translate(0,0)"></path>
<path d="M 1762.12 69.0777 C 1766.12 68.8495 1775.6 68.0996 1778.75 71.6418 C 1779.84 73.2713 1776.77 78.9716 1774.62 76.9523 C 1771.73 74.2494 1759.93 73.4654 1761.11 79.4571 C 1761.61 81.9926 1773.89 82.8971 1776.49 84.9497 C 1778.02 86.1658 1780.38 87.2707 1780.8 90.0233 C 1782.29 99.4788 1774.94 100.482 1768.35 101.802 C 1766.9 101.86 1765.45 101.888 1764 101.886 C 1761.55 101.861 1752.27 100.721 1751.88 98.9968 C 1750.25 92.1299 1755.75 92.7994 1760.5 95.0249 C 1763.06 96.2224 1774.57 96.3223 1770.88 90.5605 C 1768.65 87.0817 1754.75 88.5027 1752.81 82.5621 C 1750.06 74.114 1755.6 71.7531 1762.12 69.0777 z" fill="rgb(33,31,32)" transform="translate(0,0)"></path>
<path d="M 462.9 778.704 C 467.263 778.684 471.081 778.741 475.449 778.923 C 475.666 793.746 475.422 808.861 475.465 823.75 C 471.206 823.934 467.144 823.851 462.887 823.791 C 462.816 808.762 462.82 793.733 462.9 778.704 z" fill="rgb(33,31,32)" transform="translate(0,0)"></path>
<path d="M 1455.34 1429.03 C 1457.14 1429.01 1473.24 1429.13 1471.76 1433.39 C 1470.12 1438.12 1468.47 1438.81 1464.48 1435.99 C 1462.25 1433.98 1452.74 1435.18 1453.09 1438.71 C 1453.6 1443.8 1470.91 1441.52 1472.65 1449.06 C 1474.63 1457.64 1468.82 1459.92 1462.42 1462.2 C 1432.83 1463.05 1447.36 1451.84 1450.22 1453.76 C 1460.16 1460.44 1471.88 1451.55 1457.5 1449.15 C 1441.69 1446.52 1439.28 1434.95 1455.34 1429.03 z" fill="rgb(33,31,32)" transform="translate(0,0)"></path>
<path d="M 1203.68 1429.84 C 1204.65 1429.82 1210.72 1429.28 1211.32 1430.22 C 1213.71 1433.94 1209.5 1452.03 1214.58 1453.94 C 1233.39 1460.9 1224.53 1439.71 1227.64 1430.62 C 1227.63 1430.65 1235.07 1426.85 1234.96 1433.93 L 1234.97 1435.75 C 1234.98 1442.46 1236.64 1452.25 1231.37 1457.61 C 1224.13 1464.97 1206.42 1463.36 1204.08 1452 C 1202.85 1446.08 1203.43 1436.29 1203.68 1429.84 z" fill="rgb(33,31,32)" transform="translate(0,0)"></path>
<path d="M 1743.81 808.659 C 1752.29 798.816 1752.29 810.237 1762.61 806.254 C 1768.93 803.815 1761.86 799.367 1758.51 799.77 C 1755.64 799.33 1747.59 797.254 1746.55 793.857 C 1742.33 779.991 1759.39 779.029 1768.82 781.369 C 1775.31 782.978 1770.78 791.128 1766.4 787.393 C 1764.61 785.867 1751.51 785.386 1755.16 791.03 C 1757.51 794.463 1770.69 793.449 1772.54 798.617 C 1778.23 814.569 1757.69 813.193 1750.41 811.924 L 1748.85 811.663 C 1746.56 812.01 1744.3 812.418 1742.03 812.858 C 1742.61 811.838 1742.86 810.992 1742.83 809.813 L 1742.85 808.535 L 1743.81 808.659 z" fill="rgb(33,31,32)" transform="translate(0,0)"></path>
<path d="M 1743.81 808.659 C 1745.9 810.866 1745.93 810.861 1748.85 811.663 C 1746.56 812.01 1744.3 812.418 1742.03 812.858 C 1742.61 811.838 1742.86 810.992 1742.83 809.813 L 1742.85 808.535 L 1743.81 808.659 z" fill="rgb(211,211,211)" transform="translate(0,0)"></path>
<path d="M 553.179 778.894 C 557.238 778.826 561.275 778.739 565.331 778.969 C 565.474 793.98 565.441 808.993 565.232 824.003 C 561.186 823.943 557.141 823.933 553.095 823.975 C 553.011 808.948 553.038 793.92 553.179 778.894 z" fill="rgb(33,31,32)" transform="translate(0,0)"></path>
<path d="M 733.572 778.792 C 737.703 778.7 741.836 778.724 745.966 778.865 L 745.734 823.864 C 732.759 824.388 733.658 826.332 733.799 814.001 C 733.933 802.383 733.58 790.45 733.572 778.792 z" fill="rgb(33,31,32)" transform="translate(0,0)"></path>
<path d="M 1248.57 68.24 C 1260.05 68.7934 1270.5 73.3947 1259.93 77.7885 C 1259.16 78.1098 1251.96 72.372 1245.49 75.9299 C 1239.01 79.4974 1237.78 84.793 1240.56 89.8769 C 1241.91 92.3813 1244.26 94.2025 1247.02 94.8973 C 1251.7 96.0354 1255.32 95.4817 1259.3 93.1694 C 1261.34 94.176 1263.46 94.6461 1265.17 95.499 C 1265.96 100.878 1245.8 104.359 1239.6 99.8156 C 1224.48 88.7436 1229.13 72.655 1248.57 68.24 z" fill="rgb(33,31,32)" transform="translate(0,0)"></path>
<path d="M 1572.11 69.1399 C 1575.33 68.9415 1597.13 68.807 1589.64 76.3363 C 1585.35 80.6495 1573.59 70.4812 1568.95 79.9991 C 1564.13 89.8644 1572.2 97.5829 1582.97 94.3182 L 1586.3 93.295 C 1589.1 92.8314 1591.91 95.1516 1590.69 96.9033 C 1587.31 101.736 1575.63 103.113 1570.59 100.705 C 1553.07 92.3368 1555.35 76.155 1572.11 69.1399 z" fill="rgb(33,31,32)" transform="translate(0,0)"></path>
<path d="M 1348.45 1429.11 C 1354.18 1428.99 1356.19 1428.89 1361.99 1430.95 C 1369.37 1433.56 1366.46 1435.12 1361.07 1438.98 C 1360.44 1439.43 1358.39 1436.47 1357.77 1436.31 C 1334.89 1430.46 1338.3 1462.96 1361.21 1453.68 C 1368.52 1455.58 1368.41 1458.14 1361.41 1460.71 C 1337.59 1469.48 1319.25 1438.64 1348.45 1429.11 z" fill="rgb(33,31,32)" transform="translate(0,0)"></path>
<path d="M 1367.1 69.1391 C 1369.09 69.0221 1386.09 68.0481 1386.81 74.4153 C 1386.85 74.7129 1382.48 79.242 1382.01 78.9169 C 1378.73 76.6414 1377.2 74.5413 1372.5 75.0209 C 1370.63 74.9911 1365.64 76.9158 1364.8 78.8336 C 1358.17 94.0311 1369.64 96.6038 1380.11 94.4938 C 1381.67 91.9577 1384.54 94.8106 1385.04 95.6087 C 1389.02 102.284 1370.58 102.804 1366.89 101.405 C 1349.54 94.8251 1349.45 77.2306 1367.1 69.1391 z" fill="rgb(33,31,32)" transform="translate(0,0)"></path>
<path d="M 1434.59 1429.53 C 1436.1 1429.52 1440.67 1428.87 1441.59 1430.26 C 1441.59 1430.33 1430.08 1447.98 1428.95 1449.74 C 1428.94 1450.8 1429.55 1461.36 1428.32 1461.66 C 1415.72 1464.73 1422.38 1455.84 1419.24 1447.83 C 1417.98 1446.03 1407.45 1431.03 1407.34 1430.2 C 1408.22 1429.17 1409.88 1429.86 1411 1429.64 C 1417.62 1428.31 1420.67 1437.02 1424.93 1443.01 C 1427.8 1438.64 1430.95 1433.08 1434.59 1429.53 z" fill="rgb(33,31,32)" transform="translate(0,0)"></path>
<path d="M 1592.21 1429.49 C 1597.44 1429.33 1618.11 1428.71 1624.23 1429.73 C 1624.92 1430.09 1624.93 1431.75 1624.99 1432.05 C 1625.96 1436.86 1616.99 1435.08 1613.2 1435.13 C 1613.16 1440.84 1613.16 1446.54 1613.2 1452.25 C 1613.21 1453.67 1613.24 1455.08 1613.29 1456.5 C 1613.6 1466.04 1605.34 1460.15 1605.53 1461.16 C 1604.4 1455.08 1604.95 1442.18 1604.86 1435.32 C 1594.9 1435.01 1592.62 1438.31 1592.21 1429.49 z" fill="rgb(33,31,32)" transform="translate(0,0)"></path>
<path d="M 1475.03 1430.04 C 1481.05 1429.76 1487.53 1429.64 1493.43 1429.75 C 1495.62 1430.49 1504.71 1428.01 1504.87 1431.47 C 1505.23 1439.44 1498.5 1433.71 1495.64 1436.51 C 1494.88 1437.26 1495.39 1451.92 1495.41 1453.83 C 1495.57 1456.08 1499.3 1464.68 1488.48 1461.99 C 1484.67 1461.05 1488.76 1437.84 1486.41 1436.69 C 1478.81 1432.95 1478.76 1441.2 1475.03 1430.04 z" fill="rgb(33,31,32)" transform="translate(0,0)"></path>
<path d="M 1466.96 69.3318 C 1469.54 69.3251 1495.91 68.92 1496.26 69.6747 C 1500.8 79.5165 1490.23 73.745 1487.52 75.8754 C 1486.44 76.732 1486.89 86.1259 1486.91 88.75 C 1486.91 91.5204 1487.54 98.1685 1486.28 100.65 C 1485.66 101.708 1479.44 101.422 1479.35 100.66 C 1478.48 93.0454 1478.98 82.9837 1478.94 75.3776 C 1469.48 74.6403 1467.34 78.3113 1466.96 69.3318 z" fill="rgb(33,31,32)" transform="translate(0,0)"></path>
<path d="M 1648.48 1429.07 C 1659.06 1429.28 1656.81 1428.05 1657.05 1439.5 C 1657.17 1444.65 1657.04 1449.9 1657.05 1455.06 C 1668.46 1455.06 1672.48 1451.26 1674.03 1461.32 C 1665.48 1461.38 1656.92 1461.37 1648.37 1461.3 C 1648.32 1450.56 1648.35 1439.81 1648.48 1429.07 z" fill="rgb(33,31,32)" transform="translate(0,0)"></path>
<path d="M 1715.79 812.654 C 1715.92 802.339 1715.58 791.824 1716.21 781.586 C 1716.29 780.231 1723.78 780.513 1723.9 781.306 C 1724.99 788.981 1724.32 798.592 1724.34 806.504 C 1730.78 806.562 1738.9 805.14 1742.85 808.535 L 1742.83 809.813 C 1742.86 810.992 1742.61 811.838 1742.03 812.858 C 1733.57 812.463 1724.42 812.798 1715.79 812.654 z" fill="rgb(33,31,32)" transform="translate(0,0)"></path>
<path d="M 1549.17 1429.92 C 1551.05 1429.78 1557.12 1429.03 1557.46 1430.2 C 1558.41 1433.43 1557.9 1451.76 1557.91 1454.94 C 1569.75 1455.06 1573.62 1451.29 1574.92 1461.15 C 1566.1 1461.14 1557.99 1461.46 1549.32 1461.56 C 1549.2 1451.01 1549.15 1440.46 1549.17 1429.92 z" fill="rgb(33,31,32)" transform="translate(0,0)"></path>
<path d="M 1684.87 780.493 C 1693.16 780.838 1693.16 778.96 1693.04 787.549 C 1692.94 793.722 1693.02 800.299 1693.04 806.508 C 1698.41 806.62 1711.49 804.82 1711.2 809.456 C 1711.17 809.811 1711.63 811.836 1711.73 812.377 C 1703 812.717 1693.56 812.678 1684.81 812.578 L 1684.87 780.493 z" fill="rgb(33,31,32)" transform="translate(0,0)"></path>
<path d="M 1653.7 69.1577 C 1663.15 69.2041 1662.42 67.6473 1662.42 77.4873 C 1662.42 85.3986 1662.41 93.4389 1662.51 101.353 C 1660.61 101.286 1655.02 101.635 1653.67 100.409 C 1653.43 100.186 1653.49 98.9313 1653.49 98.7033 C 1653.78 88.8581 1653.56 79.0198 1653.7 69.1577 z" fill="rgb(33,31,32)" transform="translate(0,0)"></path>
<path d="M 1317.07 1429.62 C 1317.87 1429.62 1325.38 1429.19 1325.45 1430.57 C 1325.95 1440.4 1325.71 1452.18 1325.75 1461.93 C 1323.8 1461.96 1319.28 1462.64 1317.59 1461.5 C 1316.3 1460.62 1317.1 1432.98 1317.07 1429.62 z" fill="rgb(33,31,32)" transform="translate(0,0)"></path>
<path d="M 1680.75 1429.7 C 1681.71 1429.68 1688.47 1429.11 1688.54 1430.46 C 1689.01 1439.75 1688.98 1452.44 1688.68 1461.56 C 1688.01 1461.53 1680.33 1461.58 1680.31 1460.78 C 1680.1 1450.76 1679.93 1439.69 1680.75 1429.7 z" fill="rgb(33,31,32)" transform="translate(0,0)"></path>
<path d="M 1542.74 69.2398 C 1544.38 69.2752 1550.31 68.9501 1550.47 70.0338 C 1551.4 76.2888 1550.96 95.7595 1550.97 101.396 C 1549.22 101.323 1542.82 101.533 1542.7 100.379 C 1542.07 94.2614 1542.59 74.3071 1542.74 69.2398 z" fill="rgb(33,31,32)" transform="translate(0,0)"></path>
<path d="M 1630.18 1429.26 C 1634.35 1429.33 1638.54 1427.73 1638.58 1432.45 L 1638.65 1461.77 C 1637.25 1461.76 1632.54 1462.06 1631.3 1461.5 C 1630.68 1461.22 1630.53 1458.72 1630.53 1458.03 C 1630.42 1448.42 1630.47 1438.87 1630.18 1429.26 z" fill="rgb(33,31,32)" transform="translate(0,0)"></path>
<path d="M 1513.97 780.836 C 1514.9 780.837 1521.72 780.369 1521.81 781.622 C 1522.46 790.887 1522.07 802.659 1522.03 811.776 C 1520.43 811.858 1515.52 812.713 1514.21 811.541 C 1513.51 810.909 1513.96 783.375 1513.97 780.836 z" fill="rgb(33,31,32)" transform="translate(0,0)"></path>
<path d="M 283.05 1163.87 C 288.491 1163.6 293.302 1163.55 298.738 1163.56 C 298.74 1168.5 298.79 1173.28 298.518 1178.22 C 293.871 1178.25 289.226 1178.4 284.588 1178.68 C 283.247 1171.58 283.064 1171.14 283.05 1163.87 z" fill="rgb(33,31,32)" transform="translate(0,0)"></path>
<path d="M 1750.54 978.075 C 1755.6 978.125 1760.67 978.119 1765.73 978.059 C 1765.29 984.371 1765.42 986.391 1765.91 992.701 C 1762.64 993.225 1754.52 992.873 1750.7 992.828 C 1750.53 987.912 1750.48 982.994 1750.54 978.075 z" fill="rgb(33,31,32)" transform="translate(0,0)"></path>
<path d="M 1269.01 1281.16 C 1271.42 1282.2 1272.67 1282.86 1274.96 1284.14 C 1273.7 1287.83 1259.62 1294.39 1258.36 1293.72 C 1258.93 1295.02 1257.11 1287.63 1257.07 1288.91 C 1257.57 1288.11 1267.38 1282.2 1269.01 1281.16 z" fill="rgb(33,31,32)" transform="translate(0,0)"></path>
<path d="M 559.45 1120.12 C 562.649 1121.03 568.377 1122.31 570.143 1125.5 C 570.855 1126.79 571.016 1131.39 569.449 1132.11 C 567.304 1131.84 556.109 1124.58 553.963 1123.05 C 556.162 1121.68 557.082 1121.2 559.45 1120.12 z" fill="rgb(33,31,32)" transform="translate(0,0)"></path>
<path d="M 802.461 1286.08 C 805.134 1287.6 810.705 1290.75 813.553 1291.15 C 816.079 1291.51 815.225 1298.2 814.093 1297.74 C 808.656 1295.52 803.38 1291.43 798.3 1288.34 C 799.789 1287.71 801.065 1286.89 802.461 1286.08 z" fill="rgb(33,31,32)" transform="translate(0,0)"></path>
<path d="M 357.51 1156.94 C 357.938 1161.15 357.938 1163.12 357.845 1167.35 C 358.309 1171.22 359.736 1175.98 360.843 1179.71 L 359.286 1181.85 C 357.228 1172.35 356.114 1169.02 355.72 1158.96 L 356.574 1159.02 L 357.51 1156.94 z" fill="rgb(83,83,85)" transform="translate(0,0)"></path>
<path d="M 357.51 1156.94 C 357.938 1161.15 357.938 1163.12 357.845 1167.35 C 356.908 1163.64 356.825 1162.9 356.574 1159.02 L 357.51 1156.94 z" fill="rgb(173,173,173)" transform="translate(0,0)"></path>
<path d="M 483.694 1071.66 C 485.409 1072.62 487.108 1073.61 488.789 1074.62 L 487.138 1076.94 C 485.373 1076.06 484.004 1075.44 482.165 1074.68 C 482.748 1073.4 482.984 1072.77 483.694 1071.66 z" fill="rgb(48,46,46)" transform="translate(0,0)"></path>
<path d="M 494.249 1443.85 C 494.332 1443.79 494.416 1443.73 494.499 1443.68 C 494.932 1443.42 495.366 1443.17 495.799 1442.91 C 495.947 1443.34 495.579 1444.06 495.484 1444.36 C 495.189 1444.66 494.653 1445.36 494.157 1445.48 C 493.97 1445.09 494.138 1444.63 494.249 1443.85 z" fill="rgb(211,211,211)" transform="translate(0,0)"></path>
<metadata><recraft-signature>{"signed_by": "recraft", "signature_b64": "uva0tkPHTb8JBbt6gAnULQvjFnV9Yk1dymIRhaCSQz6MO8S4D3QO5gFRE1L4SlBsta2kp0srRTE2vGNDlHSQDg==", "signing_algo": "Ed25519", "generation_timestamp": 1779715359, "identifier": "6dac9536-abba-45d0-b445-0ab66fcdcc06"}</recraft-signature></metadata></svg>